<?xml version="1.0" encoding="UTF-8" standalone="no"?>
<!DOCTYPE svg PUBLIC "-//W3C//DTD SVG 1.1//EN"
 "http://www.w3.org/Graphics/SVG/1.1/DTD/svg11.dtd">
<!-- Generated by graphviz version 2.40.1 (20161225.0304)
 -->
<!-- Title: G Pages: 1 -->
<svg width="2594pt" height="572pt"
 viewBox="0.00 0.00 2593.91 572.48" xmlns="http://www.w3.org/2000/svg" xmlns:xlink="http://www.w3.org/1999/xlink">
<g id="graph0" class="graph" transform="scale(1 1) rotate(0) translate(4 568.4817)">
<title>G</title>
<polygon fill="#ffffff" stroke="transparent" points="-4,4 -4,-568.4817 2589.9089,-568.4817 2589.9089,4 -4,4"/>
<text text-anchor="middle" x="1292.9544" y="-7.8" font-family="Times,serif" font-size="14.00" fill="#000000">pipeline</text>
<!-- packer/source&#45;ami* -->
<g id="node1" class="node">
<title>packer/source&#45;ami*</title>
<ellipse fill="none" stroke="#000000" cx="1077.5704" cy="-348.9528" rx="80.6858" ry="18"/>
<text text-anchor="middle" x="1077.5704" y="-345.2528" font-family="Times,serif" font-size="14.00" fill="#000000">packer/source&#45;ami*</text>
</g>
<!-- terraform/bastion -->
<g id="node2" class="node">
<title>terraform/bastion</title>
<ellipse fill="none" stroke="#000000" cx="1296.2042" cy="-478.9528" rx="72.2875" ry="18"/>
<text text-anchor="middle" x="1296.2042" y="-475.2528" font-family="Times,serif" font-size="14.00" fill="#000000">terraform/bastion</text>
</g>
<!-- packer/source&#45;ami*&#45;&gt;terraform/bastion -->
<g id="edge1" class="edge">
<title>packer/source&#45;ami*&#45;&gt;terraform/bastion</title>
<path fill="none" stroke="#000000" d="M1129.2837,-363.0013C1143.4841,-367.7885 1158.6003,-373.7814 1171.812,-380.9528 1173.1247,-381.6654 1230.0226,-426.6065 1266.4035,-455.3756"/>
<polygon fill="#000000" stroke="#000000" points="1264.2584,-458.1414 1274.2731,-461.5994 1268.6007,-452.651 1264.2584,-458.1414"/>
</g>
<!-- packer/vault&#45;ami* -->
<g id="node3" class="node">
<title>packer/vault&#45;ami*</title>
<ellipse fill="none" stroke="#000000" cx="1296.2042" cy="-348.9528" rx="75.2868" ry="18"/>
<text text-anchor="middle" x="1296.2042" y="-345.2528" font-family="Times,serif" font-size="14.00" fill="#000000">packer/vault&#45;ami*</text>
</g>
<!-- packer/source&#45;ami*&#45;&gt;packer/vault&#45;ami* -->
<g id="edge2" class="edge">
<title>packer/source&#45;ami*&#45;&gt;packer/vault&#45;ami*</title>
<path fill="none" stroke="#000000" d="M1153.1179,-342.4976C1173.1797,-342.1367 1194.9242,-342.1072 1215.2612,-342.4091"/>
<polygon fill="#000000" stroke="#000000" points="1215.3727,-345.9116 1225.4335,-342.5905 1215.4976,-338.9127 1215.3727,-345.9116"/>
</g>
<!-- packer/source&#45;ami*&#45;&gt;packer/vault&#45;ami* -->
<g id="edge28" class="edge">
<title>packer/source&#45;ami*&#45;&gt;packer/vault&#45;ami*</title>
<path fill="none" stroke="#000000" d="M1153.1179,-355.408C1173.1797,-355.769 1194.9242,-355.7985 1215.2612,-355.4965"/>
<polygon fill="#000000" stroke="#000000" points="1215.4976,-358.993 1225.4335,-355.3151 1215.3727,-351.9941 1215.4976,-358.993"/>
</g>
<!-- packer/authenticated&#45;ami* -->
<g id="node19" class="node">
<title>packer/authenticated&#45;ami*</title>
<ellipse fill="none" stroke="#000000" cx="1913.109" cy="-360.9528" rx="104.7816" ry="18"/>
<text text-anchor="middle" x="1913.109" y="-357.2528" font-family="Times,serif" font-size="14.00" fill="#000000">packer/authenticated&#45;ami*</text>
</g>
<!-- packer/source&#45;ami*&#45;&gt;packer/authenticated&#45;ami* -->
<g id="edge44" class="edge">
<title>packer/source&#45;ami*&#45;&gt;packer/authenticated&#45;ami*</title>
<path fill="none" stroke="#000000" d="M1130.7313,-362.5378C1154.1899,-367.8653 1182.1986,-373.3258 1207.812,-375.9528 1285.9728,-383.9693 1306.3692,-383.2937 1384.5963,-375.9528 1474.979,-367.4713 1494.9022,-346.4344 1585.2849,-337.9528 1668.1136,-330.1802 1689.5488,-331.2174 1772.4683,-337.9528 1792.5093,-339.5808 1813.9997,-342.493 1833.9995,-345.7101"/>
<polygon fill="#000000" stroke="#000000" points="1833.5577,-349.1845 1843.9946,-347.3621 1834.6992,-342.2782 1833.5577,-349.1845"/>
</g>
<!-- terraform/prometheus -->
<g id="node20" class="node">
<title>terraform/prometheus</title>
<ellipse fill="none" stroke="#000000" cx="1296.2042" cy="-256.9528" rx="88.2844" ry="18"/>
<text text-anchor="middle" x="1296.2042" y="-253.2528" font-family="Times,serif" font-size="14.00" fill="#000000">terraform/prometheus</text>
</g>
<!-- packer/source&#45;ami*&#45;&gt;terraform/prometheus -->
<g id="edge48" class="edge">
<title>packer/source&#45;ami*&#45;&gt;terraform/prometheus</title>
<path fill="none" stroke="#000000" d="M1115.6535,-332.9277C1152.4641,-317.4379 1208.3618,-293.9164 1248.2013,-277.1522"/>
<polygon fill="#000000" stroke="#000000" points="1249.5955,-280.3628 1257.4552,-273.2582 1246.8805,-273.9108 1249.5955,-280.3628"/>
</g>
<!-- terraform/vault -->
<g id="node6" class="node">
<title>terraform/vault</title>
<ellipse fill="none" stroke="#000000" cx="1484.9406" cy="-283.9528" rx="64.189" ry="18"/>
<text text-anchor="middle" x="1484.9406" y="-280.2528" font-family="Times,serif" font-size="14.00" fill="#000000">terraform/vault</text>
</g>
<!-- terraform/bastion&#45;&gt;terraform/vault -->
<g id="edge39" class="edge">
<title>terraform/bastion&#45;&gt;terraform/vault</title>
<path fill="none" stroke="#000000" d="M1349.625,-466.6523C1362.0707,-461.9724 1374.593,-455.5953 1384.5963,-446.9528 1410.1759,-424.853 1403.1652,-408.9162 1420.5963,-379.9528 1435.1547,-355.7627 1453.1492,-329.1608 1466.4037,-310.107"/>
<polygon fill="#000000" stroke="#000000" points="1469.4473,-311.8621 1472.312,-301.6619 1463.7116,-307.8494 1469.4473,-311.8621"/>
</g>
<!-- terraform/services -->
<g id="node13" class="node">
<title>terraform/services</title>
<ellipse fill="none" stroke="#000000" cx="2510.5156" cy="-283.9528" rx="75.2868" ry="18"/>
<text text-anchor="middle" x="2510.5156" y="-280.2528" font-family="Times,serif" font-size="14.00" fill="#000000">terraform/services</text>
</g>
<!-- terraform/bastion&#45;&gt;terraform/services -->
<g id="edge24" class="edge">
<title>terraform/bastion&#45;&gt;terraform/services</title>
<path fill="none" stroke="#000000" d="M1368.5036,-478.052C1419.1381,-477.2221 1488.3657,-475.6894 1549.2849,-472.9528 1757.7366,-463.5891 1812.7714,-480.9875 2017.7497,-441.9528 2185.9655,-409.919 2376.8581,-337.9987 2463.4084,-303.345"/>
<polygon fill="#000000" stroke="#000000" points="2464.7242,-306.5883 2472.6954,-299.609 2462.1117,-300.0941 2464.7242,-306.5883"/>
</g>
<!-- @shell/root&#45;certificates -->
<g id="node17" class="node">
<title>@shell/root&#45;certificates</title>
<ellipse fill="none" stroke="#000000" cx="1678.8766" cy="-364.9528" rx="93.6835" ry="18"/>
<text text-anchor="middle" x="1678.8766" y="-361.2528" font-family="Times,serif" font-size="14.00" fill="#000000">@shell/root&#45;certificates</text>
</g>
<!-- terraform/bastion&#45;&gt;@shell/root&#45;certificates -->
<g id="edge37" class="edge">
<title>terraform/bastion&#45;&gt;@shell/root&#45;certificates</title>
<path fill="none" stroke="#000000" d="M1337.1404,-464.0988C1366.9406,-453.3568 1404.7419,-439.8976 1420.5963,-434.9528 1484.8656,-414.9082 1559.133,-395.1269 1611.4864,-381.7336"/>
<polygon fill="#000000" stroke="#000000" points="1612.5015,-385.0868 1621.3272,-379.2252 1610.7725,-378.3037 1612.5015,-385.0868"/>
</g>
<!-- @shell/init&#45;vault -->
<g id="node18" class="node">
<title>@shell/init&#45;vault</title>
<ellipse fill="none" stroke="#000000" cx="1913.109" cy="-414.9528" rx="70.3881" ry="18"/>
<text text-anchor="middle" x="1913.109" y="-411.2528" font-family="Times,serif" font-size="14.00" fill="#000000">@shell/init&#45;vault</text>
</g>
<!-- terraform/bastion&#45;&gt;@shell/init&#45;vault -->
<g id="edge40" class="edge">
<title>terraform/bastion&#45;&gt;@shell/init&#45;vault</title>
<path fill="none" stroke="#000000" d="M1363.1038,-472.0124C1478.9995,-459.989 1716.3351,-435.3669 1837.8203,-422.7636"/>
<polygon fill="#000000" stroke="#000000" points="1838.2007,-426.243 1847.7861,-421.7297 1837.4783,-419.2803 1838.2007,-426.243"/>
</g>
<!-- packer/vault&#45;ami*&#45;&gt;terraform/vault -->
<g id="edge20" class="edge">
<title>packer/vault&#45;ami*&#45;&gt;terraform/vault</title>
<path fill="none" stroke="#000000" d="M1339.5041,-334.0405C1367.7619,-324.3087 1404.762,-311.566 1434.3704,-301.369"/>
<polygon fill="#000000" stroke="#000000" points="1435.7895,-304.5821 1444.1047,-298.0165 1433.51,-297.9636 1435.7895,-304.5821"/>
</g>
<!-- @ansible/worker&#45;provision -->
<g id="node4" class="node">
<title>@ansible/worker&#45;provision</title>
<ellipse fill="none" stroke="#000000" cx="657.2013" cy="-325.9528" rx="107.4815" ry="18"/>
<text text-anchor="middle" x="657.2013" y="-322.2528" font-family="Times,serif" font-size="14.00" fill="#000000">@ansible/worker&#45;provision</text>
</g>
<!-- @ansible/worker&#45;provision&#45;&gt;packer/source&#45;ami* -->
<g id="edge3" class="edge">
<title>@ansible/worker&#45;provision&#45;&gt;packer/source&#45;ami*</title>
<path fill="none" stroke="#000000" d="M759.2291,-331.5352C829.4964,-335.3798 921.9312,-340.4372 989.083,-344.1114"/>
<polygon fill="#000000" stroke="#000000" points="989.0421,-347.6143 999.2184,-344.6659 989.4246,-340.6247 989.0421,-347.6143"/>
</g>
<!-- @ansible/worker&#45;provision&#45;&gt;terraform/bastion -->
<g id="edge4" class="edge">
<title>@ansible/worker&#45;provision&#45;&gt;terraform/bastion</title>
<path fill="none" stroke="#000000" d="M668.4036,-343.9964C689.6928,-376.5737 739.3694,-444.8069 800.4418,-476.9528 942.7819,-551.8747 1141.5079,-518.4729 1238.4356,-494.9767"/>
<polygon fill="#000000" stroke="#000000" points="1239.4713,-498.326 1248.3367,-492.5246 1237.7885,-491.5313 1239.4713,-498.326"/>
</g>
<!-- @ansible/worker&#45;provision&#45;&gt;packer/vault&#45;ami* -->
<g id="edge5" class="edge">
<title>@ansible/worker&#45;provision&#45;&gt;packer/vault&#45;ami*</title>
<path fill="none" stroke="#000000" d="M721.0233,-340.5231C818.3289,-360.8451 1009.5988,-393.3549 1171.812,-375.9528 1192.8645,-373.6943 1215.5829,-369.3444 1235.7712,-364.7848"/>
<polygon fill="#000000" stroke="#000000" points="1236.817,-368.1352 1245.7667,-362.4649 1235.2343,-361.3164 1236.817,-368.1352"/>
</g>
<!-- terraform/buckets -->
<g id="node5" class="node">
<title>terraform/buckets</title>
<ellipse fill="none" stroke="#000000" cx="873.8852" cy="-302.9528" rx="73.387" ry="18"/>
<text text-anchor="middle" x="873.8852" y="-299.2528" font-family="Times,serif" font-size="14.00" fill="#000000">terraform/buckets</text>
</g>
<!-- @ansible/worker&#45;provision&#45;&gt;terraform/buckets -->
<g id="edge6" class="edge">
<title>@ansible/worker&#45;provision&#45;&gt;terraform/buckets</title>
<path fill="none" stroke="#000000" d="M747.8393,-316.332C763.9166,-314.6255 780.5286,-312.8622 796.2069,-311.198"/>
<polygon fill="#000000" stroke="#000000" points="796.7853,-314.6564 806.36,-310.1203 796.0464,-307.6955 796.7853,-314.6564"/>
</g>
<!-- @ansible/worker&#45;provision&#45;&gt;terraform/vault -->
<g id="edge7" class="edge">
<title>@ansible/worker&#45;provision&#45;&gt;terraform/vault</title>
<path fill="none" stroke="#000000" d="M667.1318,-307.9221C688.463,-276.5406 741.5295,-213.4918 800.4418,-179.9528 873.7749,-138.204 899.7233,-140.3918 983.3287,-128.9528 1160.4232,-104.7227 1227.5819,-70.5359 1384.5963,-155.9528 1426.1524,-178.5596 1457.796,-225.8926 1473.6523,-256.4427"/>
<polygon fill="#000000" stroke="#000000" points="1470.669,-258.3059 1478.2382,-265.7193 1476.9441,-255.2037 1470.669,-258.3059"/>
</g>
<!-- @ansible/worker&#45;provision&#45;&gt;terraform/vault -->
<g id="edge32" class="edge">
<title>@ansible/worker&#45;provision&#45;&gt;terraform/vault</title>
<path fill="none" stroke="#000000" d="M675.8597,-308.081C700.9338,-280.2208 748.4076,-227.5761 800.4418,-197.9528 873.7749,-156.204 899.7233,-158.3918 983.3287,-146.9528 1160.4232,-122.7227 1227.5819,-88.5359 1384.5963,-173.9528 1420.4838,-193.4759 1448.9787,-231.4394 1466.2971,-257.4025"/>
<polygon fill="#000000" stroke="#000000" points="1463.5441,-259.5873 1471.9506,-266.0356 1469.4002,-255.7523 1463.5441,-259.5873"/>
</g>
<!-- terraform/dns -->
<g id="node7" class="node">
<title>terraform/dns</title>
<ellipse fill="none" stroke="#000000" cx="1077.5704" cy="-218.9528" rx="59.2899" ry="18"/>
<text text-anchor="middle" x="1077.5704" y="-215.2528" font-family="Times,serif" font-size="14.00" fill="#000000">terraform/dns</text>
</g>
<!-- @ansible/worker&#45;provision&#45;&gt;terraform/dns -->
<g id="edge8" class="edge">
<title>@ansible/worker&#45;provision&#45;&gt;terraform/dns</title>
<path fill="none" stroke="#000000" d="M699.9798,-309.3432C728.2058,-298.8021 766.1653,-285.415 800.4418,-275.9528 873.4721,-255.7925 959.0998,-239.2341 1015.6348,-229.2556"/>
<polygon fill="#000000" stroke="#000000" points="1016.2476,-232.7016 1025.4945,-227.53 1015.0408,-225.8064 1016.2476,-232.7016"/>
</g>
<!-- terraform/vault&#45;volume -->
<g id="node8" class="node">
<title>terraform/vault&#45;volume</title>
<ellipse fill="none" stroke="#000000" cx="1077.5704" cy="-164.9528" rx="94.4839" ry="18"/>
<text text-anchor="middle" x="1077.5704" y="-161.2528" font-family="Times,serif" font-size="14.00" fill="#000000">terraform/vault&#45;volume</text>
</g>
<!-- @ansible/worker&#45;provision&#45;&gt;terraform/vault&#45;volume -->
<g id="edge9" class="edge">
<title>@ansible/worker&#45;provision&#45;&gt;terraform/vault&#45;volume</title>
<path fill="none" stroke="#000000" d="M680.8529,-308.3911C708.3266,-288.731 755.6291,-257.1234 800.4418,-237.9528 864.7396,-210.4466 941.9766,-191.1383 998.5599,-179.3179"/>
<polygon fill="#000000" stroke="#000000" points="999.4312,-182.7121 1008.5213,-177.2696 998.0212,-175.8555 999.4312,-182.7121"/>
</g>
<!-- terraform/security -->
<g id="node9" class="node">
<title>terraform/security</title>
<ellipse fill="none" stroke="#000000" cx="1077.5704" cy="-478.9528" rx="74.9875" ry="18"/>
<text text-anchor="middle" x="1077.5704" y="-475.2528" font-family="Times,serif" font-size="14.00" fill="#000000">terraform/security</text>
</g>
<!-- @ansible/worker&#45;provision&#45;&gt;terraform/security -->
<g id="edge10" class="edge">
<title>@ansible/worker&#45;provision&#45;&gt;terraform/security</title>
<path fill="none" stroke="#000000" d="M672.1627,-344.0899C696.0621,-371.6352 745.7638,-423.3054 800.4418,-446.9528 861.5623,-473.3866 936.9702,-480.6567 993.6872,-481.7231"/>
<polygon fill="#000000" stroke="#000000" points="993.6501,-485.2228 1003.694,-481.8509 993.7396,-478.2234 993.6501,-485.2228"/>
</g>
<!-- terraform/private -->
<g id="node10" class="node">
<title>terraform/private</title>
<ellipse fill="none" stroke="#000000" cx="2327.6286" cy="-283.9528" rx="71.4873" ry="18"/>
<text text-anchor="middle" x="2327.6286" y="-280.2528" font-family="Times,serif" font-size="14.00" fill="#000000">terraform/private</text>
</g>
<!-- @ansible/worker&#45;provision&#45;&gt;terraform/private -->
<g id="edge11" class="edge">
<title>@ansible/worker&#45;provision&#45;&gt;terraform/private</title>
<path fill="none" stroke="#000000" d="M665.4605,-344.0795C683.7898,-382.0728 731.7442,-469.9973 800.4418,-511.9528 907.322,-577.2277 952.3338,-562.9528 1077.5704,-562.9528 1077.5704,-562.9528 1077.5704,-562.9528 1913.109,-562.9528 2057.9092,-562.9528 2109.5993,-547.4887 2220.1349,-453.9528 2267.0382,-414.2631 2300.248,-348.8211 2316.4299,-311.778"/>
<polygon fill="#000000" stroke="#000000" points="2319.8415,-312.6998 2320.5397,-302.128 2313.4012,-309.9569 2319.8415,-312.6998"/>
</g>
<!-- terraform/buckets&#45;&gt;packer/source&#45;ami* -->
<g id="edge12" class="edge">
<title>terraform/buckets&#45;&gt;packer/source&#45;ami*</title>
<path fill="none" stroke="#000000" d="M927.9344,-315.1592C953.3293,-320.8944 983.8517,-327.7875 1010.6881,-333.8482"/>
<polygon fill="#000000" stroke="#000000" points="1010.2491,-337.3372 1020.7745,-336.1261 1011.7912,-330.5091 1010.2491,-337.3372"/>
</g>
<!-- terraform/buckets&#45;&gt;terraform/bastion -->
<g id="edge13" class="edge">
<title>terraform/buckets&#45;&gt;terraform/bastion</title>
<path fill="none" stroke="#000000" d="M895.8641,-320.2177C917.2305,-336.355 951.0895,-360.2547 983.3287,-375.9528 1066.5398,-416.4706 1169.5866,-446.9242 1234.1321,-463.8448"/>
<polygon fill="#000000" stroke="#000000" points="1233.5932,-467.3208 1244.1517,-466.4438 1235.3508,-460.5451 1233.5932,-467.3208"/>
</g>
<!-- terraform/buckets&#45;&gt;packer/vault&#45;ami* -->
<g id="edge14" class="edge">
<title>terraform/buckets&#45;&gt;packer/vault&#45;ami*</title>
<path fill="none" stroke="#000000" d="M947.0447,-304.5605C1007.5445,-306.6219 1095.586,-311.3109 1171.812,-321.9528 1192.3139,-324.8151 1214.4671,-329.1978 1234.3182,-333.605"/>
<polygon fill="#000000" stroke="#000000" points="1233.6375,-337.0394 1244.1635,-335.8336 1235.183,-330.2121 1233.6375,-337.0394"/>
</g>
<!-- terraform/buckets&#45;&gt;terraform/vault -->
<g id="edge15" class="edge">
<title>terraform/buckets&#45;&gt;terraform/vault</title>
<path fill="none" stroke="#000000" d="M946.9858,-300.6799C1064.1088,-297.0381 1292.5971,-289.9335 1410.5389,-286.2663"/>
<polygon fill="#000000" stroke="#000000" points="1410.6778,-289.7637 1420.5642,-285.9545 1410.4602,-282.7671 1410.6778,-289.7637"/>
</g>
<!-- terraform/buckets&#45;&gt;terraform/dns -->
<g id="edge16" class="edge">
<title>terraform/buckets&#45;&gt;terraform/dns</title>
<path fill="none" stroke="#000000" d="M906.0085,-286.4775C927.5875,-275.7127 956.8185,-261.7092 983.3287,-250.9528 997.1183,-245.3578 1012.296,-239.9056 1026.3672,-235.1333"/>
<polygon fill="#000000" stroke="#000000" points="1027.5277,-238.4358 1035.9012,-231.9447 1025.3074,-231.7972 1027.5277,-238.4358"/>
</g>
<!-- terraform/buckets&#45;&gt;terraform/vault&#45;volume -->
<g id="edge17" class="edge">
<title>terraform/buckets&#45;&gt;terraform/vault&#45;volume</title>
<path fill="none" stroke="#000000" d="M886.6381,-285.1669C905.1755,-260.6017 941.9065,-216.5434 983.3287,-191.9528 989.9145,-188.0432 997.0969,-184.6737 1004.4627,-181.7754"/>
<polygon fill="#000000" stroke="#000000" points="1005.6626,-185.0633 1013.8598,-178.3509 1003.2658,-178.4864 1005.6626,-185.0633"/>
</g>
<!-- terraform/buckets&#45;&gt;terraform/security -->
<g id="edge18" class="edge">
<title>terraform/buckets&#45;&gt;terraform/security</title>
<path fill="none" stroke="#000000" d="M890.6677,-320.5658C911.6037,-342.2123 948.8541,-379.6706 983.3287,-408.9528 1002.9074,-425.5827 1026.0514,-442.8053 1044.5041,-456.0061"/>
<polygon fill="#000000" stroke="#000000" points="1042.7055,-459.0214 1052.8855,-461.9569 1046.758,-453.3138 1042.7055,-459.0214"/>
</g>
<!-- terraform/buckets&#45;&gt;terraform/private -->
<g id="edge19" class="edge">
<title>terraform/buckets&#45;&gt;terraform/private</title>
<path fill="none" stroke="#000000" d="M879.5828,-284.8531C891.8973,-249.1902 924.7202,-170.4813 983.3287,-137.9528 1385.3631,85.1811 1559.9234,-78.3442 2017.7497,-120.9528 2108.8767,-129.4338 2140.8518,-113.2338 2220.1349,-158.9528 2261.3023,-182.6922 2294.2857,-228.2175 2312.3845,-257.2842"/>
<polygon fill="#000000" stroke="#000000" points="2309.5501,-259.3602 2317.7292,-266.0947 2315.535,-255.7296 2309.5501,-259.3602"/>
</g>
<!-- terraform/vault&#45;&gt;terraform/private -->
<g id="edge23" class="edge">
<title>terraform/vault&#45;&gt;terraform/private</title>
<path fill="none" stroke="#000000" d="M1549.3615,-282.5621C1677.2477,-280.0316 1972.2375,-275.3421 2220.1349,-279.9528 2228.8173,-280.1143 2237.8921,-280.3491 2246.9303,-280.6253"/>
<polygon fill="#000000" stroke="#000000" points="2246.9888,-284.1289 2257.0964,-280.9529 2247.2143,-277.1325 2246.9888,-284.1289"/>
</g>
<!-- terraform/vault&#45;&gt;terraform/services -->
<g id="edge25" class="edge">
<title>terraform/vault&#45;&gt;terraform/services</title>
<path fill="none" stroke="#000000" d="M1545.6526,-277.8914C1558.7148,-276.7598 1572.4509,-275.6998 1585.2849,-274.9528 1883.0438,-257.622 1957.8989,-260.9532 2256.1349,-256.9528 2319.6791,-256.1005 2336.021,-249.4146 2399.1223,-256.9528 2416.9606,-259.0838 2436.0711,-263.0698 2453.338,-267.3373"/>
<polygon fill="#000000" stroke="#000000" points="2452.713,-270.7899 2463.2678,-269.8706 2454.4434,-264.0072 2452.713,-270.7899"/>
</g>
<!-- terraform/vault&#45;&gt;@shell/root&#45;certificates -->
<g id="edge38" class="edge">
<title>terraform/vault&#45;&gt;@shell/root&#45;certificates</title>
<path fill="none" stroke="#000000" d="M1520.964,-298.9985C1551.8031,-311.8789 1596.4727,-330.5357 1630.4387,-344.7221"/>
<polygon fill="#000000" stroke="#000000" points="1629.1382,-347.9719 1639.7146,-348.5963 1631.836,-341.5126 1629.1382,-347.9719"/>
</g>
<!-- terraform/vault&#45;&gt;@shell/init&#45;vault -->
<g id="edge41" class="edge">
<title>terraform/vault&#45;&gt;@shell/init&#45;vault</title>
<path fill="none" stroke="#000000" d="M1495.4965,-302.0227C1511.3633,-327.2607 1543.9549,-372.1873 1585.2849,-391.9528 1666.4319,-430.7603 1771.9636,-430.492 1841.0691,-424.5589"/>
<polygon fill="#000000" stroke="#000000" points="1841.779,-428.0084 1851.4154,-423.6049 1841.1363,-421.038 1841.779,-428.0084"/>
</g>
<!-- terraform/dns&#45;&gt;terraform/vault -->
<g id="edge30" class="edge">
<title>terraform/dns&#45;&gt;terraform/vault</title>
<path fill="none" stroke="#000000" d="M1133.8926,-213.4248C1196.3522,-209.0175 1299.5275,-206.889 1384.5963,-229.9528 1408.827,-236.5222 1433.6924,-249.848 1452.6091,-261.6175"/>
<polygon fill="#000000" stroke="#000000" points="1450.812,-264.6227 1461.1229,-267.0591 1454.5819,-258.7245 1450.812,-264.6227"/>
</g>
<!-- terraform/dns&#45;&gt;terraform/private -->
<g id="edge29" class="edge">
<title>terraform/dns&#45;&gt;terraform/private</title>
<path fill="none" stroke="#000000" d="M1122.8978,-207.1845C1213.4884,-184.0666 1414.2632,-134.9528 1484.9406,-134.9528 1484.9406,-134.9528 1484.9406,-134.9528 1913.109,-134.9528 2075.6784,-134.9528 2102.1569,-209.8035 2256.1349,-261.9528 2261.2088,-263.6712 2266.5037,-265.4071 2271.8168,-267.1101"/>
<polygon fill="#000000" stroke="#000000" points="2270.766,-270.4486 2281.3561,-270.1292 2272.8783,-263.7748 2270.766,-270.4486"/>
</g>
<!-- terraform/dns&#45;&gt;terraform/prometheus -->
<g id="edge47" class="edge">
<title>terraform/dns&#45;&gt;terraform/prometheus</title>
<path fill="none" stroke="#000000" d="M1129.1067,-227.9102C1155.8747,-232.5626 1189.1291,-238.3425 1218.9069,-243.5181"/>
<polygon fill="#000000" stroke="#000000" points="1218.4061,-246.9834 1228.8578,-245.2476 1219.6049,-240.0868 1218.4061,-246.9834"/>
</g>
<!-- terraform/vault&#45;volume&#45;&gt;terraform/vault -->
<g id="edge27" class="edge">
<title>terraform/vault&#45;volume&#45;&gt;terraform/vault</title>
<path fill="none" stroke="#000000" d="M1171.8539,-165.3987C1234.3361,-168.6517 1316.9456,-178.7298 1384.5963,-206.9528 1413.6297,-219.0652 1441.5928,-241.7351 1460.5912,-259.353"/>
<polygon fill="#000000" stroke="#000000" points="1458.2514,-261.9578 1467.9126,-266.3065 1463.072,-256.8822 1458.2514,-261.9578"/>
</g>
<!-- terraform/security&#45;&gt;terraform/bastion -->
<g id="edge33" class="edge">
<title>terraform/security&#45;&gt;terraform/bastion</title>
<path fill="none" stroke="#000000" d="M1152.5058,-478.9528C1172.2806,-478.9528 1193.7265,-478.9528 1213.8688,-478.9528"/>
<polygon fill="#000000" stroke="#000000" points="1213.9519,-482.4529 1223.9519,-478.9528 1213.9519,-475.4529 1213.9519,-482.4529"/>
</g>
<!-- terraform/security&#45;&gt;terraform/vault -->
<g id="edge31" class="edge">
<title>terraform/security&#45;&gt;terraform/vault</title>
<path fill="none" stroke="#000000" d="M1134.9227,-467.2923C1198.9764,-452.5975 1304.2062,-423.3642 1384.5963,-375.9528 1415.1038,-357.9606 1444.2789,-329.5078 1463.2277,-309.0064"/>
<polygon fill="#000000" stroke="#000000" points="1465.8419,-311.3339 1469.9708,-301.5768 1460.6584,-306.6295 1465.8419,-311.3339"/>
</g>
<!-- terraform/security&#45;&gt;terraform/private -->
<g id="edge34" class="edge">
<title>terraform/security&#45;&gt;terraform/private</title>
<path fill="none" stroke="#000000" d="M1130.8316,-491.7015C1154.3083,-496.8775 1182.3035,-502.4509 1207.812,-505.9528 1330.1222,-522.7442 1361.4832,-524.9528 1484.9406,-524.9528 1484.9406,-524.9528 1484.9406,-524.9528 1913.109,-524.9528 2083.5458,-524.9528 2246.5047,-370.7984 2304.928,-309.0682"/>
<polygon fill="#000000" stroke="#000000" points="2307.5688,-311.3686 2311.843,-301.6741 2302.4562,-306.5872 2307.5688,-311.3686"/>
</g>
<!-- terraform/private&#45;&gt;terraform/services -->
<g id="edge26" class="edge">
<title>terraform/private&#45;&gt;terraform/services</title>
<path fill="none" stroke="#000000" d="M2399.1232,-283.9528C2407.5481,-283.9528 2416.2105,-283.9528 2424.8051,-283.9528"/>
<polygon fill="#000000" stroke="#000000" points="2424.845,-287.4529 2434.8449,-283.9528 2424.8449,-280.4529 2424.845,-287.4529"/>
</g>
<!-- @terraform/vpc -->
<g id="node11" class="node">
<title>@terraform/vpc</title>
<ellipse fill="none" stroke="#000000" cx="250.481" cy="-325.9528" rx="67.6881" ry="18"/>
<text text-anchor="middle" x="250.481" y="-322.2528" font-family="Times,serif" font-size="14.00" fill="#000000">@terraform/vpc</text>
</g>
<!-- @ansible/machines -->
<g id="node12" class="node">
<title>@ansible/machines</title>
<ellipse fill="none" stroke="#000000" cx="434.0179" cy="-325.9528" rx="79.8859" ry="18"/>
<text text-anchor="middle" x="434.0179" y="-322.2528" font-family="Times,serif" font-size="14.00" fill="#000000">@ansible/machines</text>
</g>
<!-- @terraform/vpc&#45;&gt;@ansible/machines -->
<g id="edge21" class="edge">
<title>@terraform/vpc&#45;&gt;@ansible/machines</title>
<path fill="none" stroke="#000000" d="M318.3019,-325.9528C326.6689,-325.9528 335.3215,-325.9528 343.954,-325.9528"/>
<polygon fill="#000000" stroke="#000000" points="344.0603,-329.4529 354.0603,-325.9528 344.0602,-322.4529 344.0603,-329.4529"/>
</g>
<!-- @ansible/machines&#45;&gt;@ansible/worker&#45;provision -->
<g id="edge22" class="edge">
<title>@ansible/machines&#45;&gt;@ansible/worker&#45;provision</title>
<path fill="none" stroke="#000000" d="M513.9618,-325.9528C522.3225,-325.9528 530.9416,-325.9528 539.6091,-325.9528"/>
<polygon fill="#000000" stroke="#000000" points="539.7937,-329.4529 549.7936,-325.9528 539.7936,-322.4529 539.7937,-329.4529"/>
</g>
<!-- chef/ubuntu_java -->
<g id="node14" class="node">
<title>chef/ubuntu_java</title>
<ellipse fill="none" stroke="#000000" cx="1913.109" cy="-306.9528" rx="71.4873" ry="18"/>
<text text-anchor="middle" x="1913.109" y="-303.2528" font-family="Times,serif" font-size="14.00" fill="#000000">chef/ubuntu_java</text>
</g>
<!-- packer/ubuntu&#45;java* -->
<g id="node15" class="node">
<title>packer/ubuntu&#45;java*</title>
<ellipse fill="none" stroke="#000000" cx="2136.9423" cy="-306.9528" rx="83.3857" ry="18"/>
<text text-anchor="middle" x="2136.9423" y="-303.2528" font-family="Times,serif" font-size="14.00" fill="#000000">packer/ubuntu&#45;java*</text>
</g>
<!-- chef/ubuntu_java&#45;&gt;packer/ubuntu&#45;java* -->
<g id="edge35" class="edge">
<title>chef/ubuntu_java&#45;&gt;packer/ubuntu&#45;java*</title>
<path fill="none" stroke="#000000" d="M1984.8549,-306.9528C2003.4752,-306.9528 2023.806,-306.9528 2043.3683,-306.9528"/>
<polygon fill="#000000" stroke="#000000" points="2043.5149,-310.4529 2053.5149,-306.9528 2043.5148,-303.4529 2043.5149,-310.4529"/>
</g>
<!-- packer/ubuntu&#45;java*&#45;&gt;terraform/private -->
<g id="edge43" class="edge">
<title>packer/ubuntu&#45;java*&#45;&gt;terraform/private</title>
<path fill="none" stroke="#000000" d="M2209.8489,-298.1591C2223.8932,-296.4651 2238.6262,-294.688 2252.7325,-292.9866"/>
<polygon fill="#000000" stroke="#000000" points="2253.3656,-296.4357 2262.8745,-291.7633 2252.5273,-289.486 2253.3656,-296.4357"/>
</g>
<!-- @terraform/users -->
<g id="node16" class="node">
<title>@terraform/users</title>
<ellipse fill="none" stroke="#000000" cx="73.4435" cy="-325.9528" rx="73.387" ry="18"/>
<text text-anchor="middle" x="73.4435" y="-322.2528" font-family="Times,serif" font-size="14.00" fill="#000000">@terraform/users</text>
</g>
<!-- @terraform/users&#45;&gt;@terraform/vpc -->
<g id="edge36" class="edge">
<title>@terraform/users&#45;&gt;@terraform/vpc</title>
<path fill="none" stroke="#000000" d="M146.9853,-325.9528C155.4278,-325.9528 164.0576,-325.9528 172.5552,-325.9528"/>
<polygon fill="#000000" stroke="#000000" points="172.8334,-329.4529 182.8334,-325.9528 172.8333,-322.4529 172.8334,-329.4529"/>
</g>
<!-- @shell/root&#45;certificates&#45;&gt;@shell/init&#45;vault -->
<g id="edge46" class="edge">
<title>@shell/root&#45;certificates&#45;&gt;@shell/init&#45;vault</title>
<path fill="none" stroke="#000000" d="M1741.6466,-378.3519C1774.8048,-385.43 1815.431,-394.1022 1848.814,-401.2282"/>
<polygon fill="#000000" stroke="#000000" points="1848.415,-404.7218 1858.9254,-403.3866 1849.8764,-397.8761 1848.415,-404.7218"/>
</g>
<!-- @shell/root&#45;certificates&#45;&gt;packer/authenticated&#45;ami* -->
<g id="edge42" class="edge">
<title>@shell/root&#45;certificates&#45;&gt;packer/authenticated&#45;ami*</title>
<path fill="none" stroke="#000000" d="M1772.1245,-363.3604C1780.8376,-363.2116 1789.7349,-363.0597 1798.612,-362.9081"/>
<polygon fill="#000000" stroke="#000000" points="1798.6765,-366.4076 1808.6152,-362.7373 1798.5569,-359.4086 1798.6765,-366.4076"/>
</g>
<!-- packer/authenticated&#45;ami*&#45;&gt;packer/ubuntu&#45;java* -->
<g id="edge45" class="edge">
<title>packer/authenticated&#45;ami*&#45;&gt;packer/ubuntu&#45;java*</title>
<path fill="none" stroke="#000000" d="M1973.9768,-346.2684C2004.1147,-338.9976 2040.5384,-330.2104 2071.3006,-322.789"/>
<polygon fill="#000000" stroke="#000000" points="2072.174,-326.1787 2081.0743,-320.4311 2070.5323,-319.374 2072.174,-326.1787"/>
</g>
</g>
</svg>
