<?xml version="1.0" encoding="UTF-8" standalone="no"?>
<!DOCTYPE svg PUBLIC "-//W3C//DTD SVG 1.1//EN"
 "http://www.w3.org/Graphics/SVG/1.1/DTD/svg11.dtd">
<!-- Generated by graphviz version 2.40.1 (20161225.0304)
 -->
<!-- Title: G Pages: 1 -->
<svg width="2824pt" height="671pt"
 viewBox="0.00 0.00 2823.59 671.14" xmlns="http://www.w3.org/2000/svg" xmlns:xlink="http://www.w3.org/1999/xlink">
<g id="graph0" class="graph" transform="scale(1 1) rotate(0) translate(4 667.1351)">
<title>G</title>
<polygon fill="#ffffff" stroke="transparent" points="-4,4 -4,-667.1351 2819.5917,-667.1351 2819.5917,4 -4,4"/>
<text text-anchor="middle" x="1407.7958" y="-7.8" font-family="Times,serif" font-size="14.00" fill="#000000">pipeline</text>
<!-- packer/source&#45;ami* -->
<g id="node1" class="node">
<title>packer/source&#45;ami*</title>
<ellipse fill="none" stroke="#000000" cx="1307.2532" cy="-385.1351" rx="80.6858" ry="18"/>
<text text-anchor="middle" x="1307.2532" y="-381.4351" font-family="Times,serif" font-size="14.00" fill="#000000">packer/source&#45;ami*</text>
</g>
<!-- terraform/bastion -->
<g id="node2" class="node">
<title>terraform/bastion</title>
<ellipse fill="none" stroke="#000000" cx="1525.887" cy="-499.1351" rx="72.2875" ry="18"/>
<text text-anchor="middle" x="1525.887" y="-495.4351" font-family="Times,serif" font-size="14.00" fill="#000000">terraform/bastion</text>
</g>
<!-- packer/source&#45;ami*&#45;&gt;terraform/bastion -->
<g id="edge1" class="edge">
<title>packer/source&#45;ami*&#45;&gt;terraform/bastion</title>
<path fill="none" stroke="#000000" d="M1357.1212,-399.4288C1371.7318,-404.3157 1387.5265,-410.3 1401.4948,-417.1351 1435.3712,-433.712 1471.0114,-458.0068 1495.4164,-475.8502"/>
<polygon fill="#000000" stroke="#000000" points="1493.437,-478.7394 1503.5589,-481.8694 1497.5981,-473.1104 1493.437,-478.7394"/>
</g>
<!-- packer/vault&#45;ami* -->
<g id="node3" class="node">
<title>packer/vault&#45;ami*</title>
<ellipse fill="none" stroke="#000000" cx="1525.887" cy="-239.1351" rx="75.2868" ry="18"/>
<text text-anchor="middle" x="1525.887" y="-235.4351" font-family="Times,serif" font-size="14.00" fill="#000000">packer/vault&#45;ami*</text>
</g>
<!-- packer/source&#45;ami*&#45;&gt;packer/vault&#45;ami* -->
<g id="edge2" class="edge">
<title>packer/source&#45;ami*&#45;&gt;packer/vault&#45;ami*</title>
<path fill="none" stroke="#000000" d="M1366.8536,-372.7962C1378.7632,-369.0409 1390.8674,-364.236 1401.4948,-358.1351 1444.0105,-333.7281 1483.1126,-291.7423 1505.7205,-264.7253"/>
<polygon fill="#000000" stroke="#000000" points="1508.5429,-266.8036 1512.1928,-256.8573 1503.1369,-262.3566 1508.5429,-266.8036"/>
</g>
<!-- packer/authenticated&#45;ami* -->
<g id="node23" class="node">
<title>packer/authenticated&#45;ami*</title>
<ellipse fill="none" stroke="#000000" cx="2142.7918" cy="-412.1351" rx="104.7816" ry="18"/>
<text text-anchor="middle" x="2142.7918" y="-408.4351" font-family="Times,serif" font-size="14.00" fill="#000000">packer/authenticated&#45;ami*</text>
</g>
<!-- packer/source&#45;ami*&#45;&gt;packer/authenticated&#45;ami* -->
<g id="edge49" class="edge">
<title>packer/source&#45;ami*&#45;&gt;packer/authenticated&#45;ami*</title>
<path fill="none" stroke="#000000" d="M1381.5831,-392.2081C1399.8505,-393.7269 1419.3672,-395.1649 1437.4948,-396.1351 1645.4063,-407.2628 1888.1981,-410.6672 2027.8657,-411.6987"/>
<polygon fill="#000000" stroke="#000000" points="2028.1308,-415.2006 2038.1554,-411.7718 2028.1805,-408.2008 2028.1308,-415.2006"/>
</g>
<!-- terraform/prometheus -->
<g id="node24" class="node">
<title>terraform/prometheus</title>
<ellipse fill="none" stroke="#000000" cx="1525.887" cy="-369.1351" rx="88.2844" ry="18"/>
<text text-anchor="middle" x="1525.887" y="-365.4351" font-family="Times,serif" font-size="14.00" fill="#000000">terraform/prometheus</text>
</g>
<!-- packer/source&#45;ami*&#45;&gt;terraform/prometheus -->
<g id="edge55" class="edge">
<title>packer/source&#45;ami*&#45;&gt;terraform/prometheus</title>
<path fill="none" stroke="#000000" d="M1384.0278,-379.5166C1399.7195,-378.3683 1416.3954,-377.1479 1432.5917,-375.9626"/>
<polygon fill="#000000" stroke="#000000" points="1432.8833,-379.4508 1442.6011,-375.2301 1432.3723,-372.4694 1432.8833,-379.4508"/>
</g>
<!-- terraform/vault -->
<g id="node9" class="node">
<title>terraform/vault</title>
<ellipse fill="none" stroke="#000000" cx="1714.6234" cy="-239.1351" rx="64.189" ry="18"/>
<text text-anchor="middle" x="1714.6234" y="-235.4351" font-family="Times,serif" font-size="14.00" fill="#000000">terraform/vault</text>
</g>
<!-- terraform/bastion&#45;&gt;terraform/vault -->
<g id="edge44" class="edge">
<title>terraform/bastion&#45;&gt;terraform/vault</title>
<path fill="none" stroke="#000000" d="M1580.2542,-487.2006C1592.5331,-482.5206 1604.7417,-476.0518 1614.2791,-467.1351 1673.6065,-411.6692 1699.8904,-314.8845 1709.6845,-267.2509"/>
<polygon fill="#000000" stroke="#000000" points="1713.1409,-267.8125 1711.6308,-257.3259 1706.2718,-266.4654 1713.1409,-267.8125"/>
</g>
<!-- terraform/services -->
<g id="node16" class="node">
<title>terraform/services</title>
<ellipse fill="none" stroke="#000000" cx="2740.1984" cy="-253.1351" rx="75.2868" ry="18"/>
<text text-anchor="middle" x="2740.1984" y="-249.4351" font-family="Times,serif" font-size="14.00" fill="#000000">terraform/services</text>
</g>
<!-- terraform/bastion&#45;&gt;terraform/services -->
<g id="edge29" class="edge">
<title>terraform/bastion&#45;&gt;terraform/services</title>
<path fill="none" stroke="#000000" d="M1581.3966,-510.8349C1703.394,-534.5464 2003.4392,-581.886 2247.4325,-531.1351 2444.2033,-490.2066 2641.2247,-337.1069 2712.3912,-277.2939"/>
<polygon fill="#000000" stroke="#000000" points="2714.6827,-279.9398 2720.0513,-270.8058 2710.1585,-274.5983 2714.6827,-279.9398"/>
</g>
<!-- @shell/root&#45;certificates -->
<g id="node21" class="node">
<title>@shell/root&#45;certificates</title>
<ellipse fill="none" stroke="#000000" cx="1908.5594" cy="-374.1351" rx="93.6835" ry="18"/>
<text text-anchor="middle" x="1908.5594" y="-370.4351" font-family="Times,serif" font-size="14.00" fill="#000000">@shell/root&#45;certificates</text>
</g>
<!-- terraform/bastion&#45;&gt;@shell/root&#45;certificates -->
<g id="edge42" class="edge">
<title>terraform/bastion&#45;&gt;@shell/root&#45;certificates</title>
<path fill="none" stroke="#000000" d="M1569.7844,-484.796C1639.2551,-462.1034 1774.523,-417.9181 1851.4529,-392.789"/>
<polygon fill="#000000" stroke="#000000" points="1852.5749,-396.1045 1860.9939,-389.6724 1850.4014,-389.4505 1852.5749,-396.1045"/>
</g>
<!-- @shell/init&#45;vault -->
<g id="node22" class="node">
<title>@shell/init&#45;vault</title>
<ellipse fill="none" stroke="#000000" cx="2366.6251" cy="-362.1351" rx="70.3881" ry="18"/>
<text text-anchor="middle" x="2366.6251" y="-358.4351" font-family="Times,serif" font-size="14.00" fill="#000000">@shell/init&#45;vault</text>
</g>
<!-- terraform/bastion&#45;&gt;@shell/init&#45;vault -->
<g id="edge45" class="edge">
<title>terraform/bastion&#45;&gt;@shell/init&#45;vault</title>
<path fill="none" stroke="#000000" d="M1597.4559,-496.573C1768.6582,-489.9652 2191.773,-470.6255 2247.4325,-439.1351 2271.2655,-425.6512 2261.3111,-405.2743 2283.4325,-389.1351 2289.5047,-384.705 2296.3391,-380.9787 2303.4138,-377.8495"/>
<polygon fill="#000000" stroke="#000000" points="2305.1812,-380.9119 2313.1612,-373.9427 2302.5769,-374.4144 2305.1812,-380.9119"/>
</g>
<!-- packer/vault&#45;ami*&#45;&gt;terraform/vault -->
<g id="edge25" class="edge">
<title>packer/vault&#45;ami*&#45;&gt;terraform/vault</title>
<path fill="none" stroke="#000000" d="M1601.2943,-239.1351C1614.0952,-239.1351 1627.3816,-239.1351 1640.158,-239.1351"/>
<polygon fill="#000000" stroke="#000000" points="1640.2762,-242.6352 1650.2762,-239.1351 1640.2761,-235.6352 1640.2762,-242.6352"/>
</g>
<!-- gradle/app -->
<g id="node4" class="node">
<title>gradle/app</title>
<ellipse fill="none" stroke="#000000" cx="1103.5681" cy="-645.1351" rx="48.1917" ry="18"/>
<text text-anchor="middle" x="1103.5681" y="-641.4351" font-family="Times,serif" font-size="14.00" fill="#000000">gradle/app</text>
</g>
<!-- ansible&#45;local/nginx -->
<g id="node5" class="node">
<title>ansible&#45;local/nginx</title>
<ellipse fill="none" stroke="#000000" cx="1307.2532" cy="-613.1351" rx="77.9862" ry="18"/>
<text text-anchor="middle" x="1307.2532" y="-609.4351" font-family="Times,serif" font-size="14.00" fill="#000000">ansible&#45;local/nginx</text>
</g>
<!-- gradle/app&#45;&gt;ansible&#45;local/nginx -->
<g id="edge3" class="edge">
<title>gradle/app&#45;&gt;ansible&#45;local/nginx</title>
<path fill="none" stroke="#000000" d="M1148.0159,-638.1521C1172.7273,-634.2698 1204.1325,-629.3359 1232.5103,-624.8776"/>
<polygon fill="#000000" stroke="#000000" points="1233.0701,-628.3327 1242.4057,-623.323 1231.9837,-621.4175 1233.0701,-628.3327"/>
</g>
<!-- ansible&#45;local/deploy -->
<g id="node6" class="node">
<title>ansible&#45;local/deploy</title>
<ellipse fill="none" stroke="#000000" cx="1525.887" cy="-613.1351" rx="81.7856" ry="18"/>
<text text-anchor="middle" x="1525.887" y="-609.4351" font-family="Times,serif" font-size="14.00" fill="#000000">ansible&#45;local/deploy</text>
</g>
<!-- ansible&#45;local/nginx&#45;&gt;ansible&#45;local/deploy -->
<g id="edge4" class="edge">
<title>ansible&#45;local/nginx&#45;&gt;ansible&#45;local/deploy</title>
<path fill="none" stroke="#000000" d="M1385.259,-613.1351C1400.8517,-613.1351 1417.3726,-613.1351 1433.3991,-613.1351"/>
<polygon fill="#000000" stroke="#000000" points="1433.8447,-616.6352 1443.8447,-613.1351 1433.8446,-609.6352 1433.8447,-616.6352"/>
</g>
<!-- @ansible/worker&#45;provision -->
<g id="node7" class="node">
<title>@ansible/worker&#45;provision</title>
<ellipse fill="none" stroke="#000000" cx="886.8841" cy="-339.1351" rx="107.4815" ry="18"/>
<text text-anchor="middle" x="886.8841" y="-335.4351" font-family="Times,serif" font-size="14.00" fill="#000000">@ansible/worker&#45;provision</text>
</g>
<!-- @ansible/worker&#45;provision&#45;&gt;packer/source&#45;ami* -->
<g id="edge5" class="edge">
<title>@ansible/worker&#45;provision&#45;&gt;packer/source&#45;ami*</title>
<path fill="none" stroke="#000000" d="M976.8059,-348.9751C1050.1383,-356.9997 1152.9066,-368.2453 1224.2897,-376.0566"/>
<polygon fill="#000000" stroke="#000000" points="1224.2652,-379.5748 1234.5867,-377.1834 1225.0268,-372.6163 1224.2652,-379.5748"/>
</g>
<!-- @ansible/worker&#45;provision&#45;&gt;terraform/bastion -->
<g id="edge6" class="edge">
<title>@ansible/worker&#45;provision&#45;&gt;terraform/bastion</title>
<path fill="none" stroke="#000000" d="M910.5913,-356.7019C962.2232,-393.6491 1090.0939,-478.1333 1213.0115,-504.1351 1293.9845,-521.264 1389.3897,-516.2348 1453.3718,-509.3543"/>
<polygon fill="#000000" stroke="#000000" points="1453.8145,-512.8267 1463.3637,-508.2372 1453.0367,-505.87 1453.8145,-512.8267"/>
</g>
<!-- @ansible/worker&#45;provision&#45;&gt;packer/vault&#45;ami* -->
<g id="edge7" class="edge">
<title>@ansible/worker&#45;provision&#45;&gt;packer/vault&#45;ami*</title>
<path fill="none" stroke="#000000" d="M912.9784,-321.5885C940.6985,-303.9966 986.4614,-277.8846 1030.1246,-266.1351 1171.5554,-228.0771 1343.6439,-228.645 1443.388,-233.3305"/>
<polygon fill="#000000" stroke="#000000" points="1443.2436,-236.8276 1453.4045,-233.8264 1443.5898,-229.8361 1443.2436,-236.8276"/>
</g>
<!-- @ansible/worker&#45;provision&#45;&gt;gradle/app -->
<g id="edge8" class="edge">
<title>@ansible/worker&#45;provision&#45;&gt;gradle/app</title>
<path fill="none" stroke="#000000" d="M891.7826,-357.4317C905.5582,-405.633 949.0212,-537.5795 1030.1246,-613.1351 1037.528,-620.0322 1046.6548,-625.5935 1055.9276,-630.0212"/>
<polygon fill="#000000" stroke="#000000" points="1054.6265,-633.2723 1065.1906,-634.0786 1057.435,-626.8604 1054.6265,-633.2723"/>
</g>
<!-- @ansible/worker&#45;provision&#45;&gt;ansible&#45;local/nginx -->
<g id="edge9" class="edge">
<title>@ansible/worker&#45;provision&#45;&gt;ansible&#45;local/nginx</title>
<path fill="none" stroke="#000000" d="M891.9938,-357.4161C905.7497,-402.9002 948.1813,-521.3576 1030.1246,-575.1351 1060.647,-595.1663 1150.9122,-604.776 1220.2145,-609.296"/>
<polygon fill="#000000" stroke="#000000" points="1220.0783,-612.7943 1230.2777,-609.9266 1220.5162,-605.808 1220.0783,-612.7943"/>
</g>
<!-- @ansible/worker&#45;provision&#45;&gt;ansible&#45;local/deploy -->
<g id="edge10" class="edge">
<title>@ansible/worker&#45;provision&#45;&gt;ansible&#45;local/deploy</title>
<path fill="none" stroke="#000000" d="M900.6345,-357.3224C923.9789,-386.9168 974.2983,-445.3745 1030.1246,-477.1351 1067.9361,-498.6469 1335.7134,-566.2769 1461.2399,-597.3001"/>
<polygon fill="#000000" stroke="#000000" points="1460.5704,-600.7398 1471.1178,-599.7383 1462.248,-593.9438 1460.5704,-600.7398"/>
</g>
<!-- terraform/buckets -->
<g id="node8" class="node">
<title>terraform/buckets</title>
<ellipse fill="none" stroke="#000000" cx="1103.5681" cy="-293.1351" rx="73.387" ry="18"/>
<text text-anchor="middle" x="1103.5681" y="-289.4351" font-family="Times,serif" font-size="14.00" fill="#000000">terraform/buckets</text>
</g>
<!-- @ansible/worker&#45;provision&#45;&gt;terraform/buckets -->
<g id="edge11" class="edge">
<title>@ansible/worker&#45;provision&#45;&gt;terraform/buckets</title>
<path fill="none" stroke="#000000" d="M953.6645,-324.9583C980.4584,-319.2702 1011.2496,-312.7335 1037.9282,-307.0699"/>
<polygon fill="#000000" stroke="#000000" points="1038.8796,-310.446 1047.9348,-304.9456 1037.4259,-303.5986 1038.8796,-310.446"/>
</g>
<!-- @ansible/worker&#45;provision&#45;&gt;terraform/vault -->
<g id="edge12" class="edge">
<title>@ansible/worker&#45;provision&#45;&gt;terraform/vault</title>
<path fill="none" stroke="#000000" d="M892.6666,-320.8708C908.6063,-279.427 956.9031,-179.7717 1030.1246,-131.1351 1099.5944,-84.9905 1130.1432,-98.5282 1213.0115,-89.1351 1390.9297,-68.9682 1456.1086,-41.2087 1614.2791,-125.1351 1652.3008,-145.3097 1684.2326,-185.2657 1701.2903,-212.3203"/>
<polygon fill="#000000" stroke="#000000" points="1698.3334,-214.1946 1706.4922,-220.9536 1704.3291,-210.5819 1698.3334,-214.1946"/>
</g>
<!-- @ansible/worker&#45;provision&#45;&gt;terraform/vault -->
<g id="edge36" class="edge">
<title>@ansible/worker&#45;provision&#45;&gt;terraform/vault</title>
<path fill="none" stroke="#000000" d="M896.7997,-321.125C915.9971,-282.7541 962.3991,-194.121 1030.1246,-149.1351 1099.5944,-102.9905 1130.1432,-116.5282 1213.0115,-107.1351 1390.9297,-86.9682 1456.1086,-59.2087 1614.2791,-143.1351 1646.2748,-160.1123 1673.9579,-191.0974 1692.094,-213.4344"/>
<polygon fill="#000000" stroke="#000000" points="1689.5863,-215.9026 1698.5665,-221.5246 1695.0523,-211.5295 1689.5863,-215.9026"/>
</g>
<!-- terraform/dns -->
<g id="node10" class="node">
<title>terraform/dns</title>
<ellipse fill="none" stroke="#000000" cx="1307.2532" cy="-331.1351" rx="59.2899" ry="18"/>
<text text-anchor="middle" x="1307.2532" y="-327.4351" font-family="Times,serif" font-size="14.00" fill="#000000">terraform/dns</text>
</g>
<!-- @ansible/worker&#45;provision&#45;&gt;terraform/dns -->
<g id="edge13" class="edge">
<title>@ansible/worker&#45;provision&#45;&gt;terraform/dns</title>
<path fill="none" stroke="#000000" d="M993.5044,-337.1061C1070.1591,-335.6472 1171.3146,-333.7222 1237.7693,-332.4575"/>
<polygon fill="#000000" stroke="#000000" points="1238.1963,-335.9501 1248.1278,-332.2603 1238.063,-328.9513 1238.1963,-335.9501"/>
</g>
<!-- terraform/vault&#45;volume -->
<g id="node11" class="node">
<title>terraform/vault&#45;volume</title>
<ellipse fill="none" stroke="#000000" cx="1307.2532" cy="-125.1351" rx="94.4839" ry="18"/>
<text text-anchor="middle" x="1307.2532" y="-121.4351" font-family="Times,serif" font-size="14.00" fill="#000000">terraform/vault&#45;volume</text>
</g>
<!-- @ansible/worker&#45;provision&#45;&gt;terraform/vault&#45;volume -->
<g id="edge14" class="edge">
<title>@ansible/worker&#45;provision&#45;&gt;terraform/vault&#45;volume</title>
<path fill="none" stroke="#000000" d="M899.6414,-320.9969C922.2714,-290.225 972.5196,-227.944 1030.1246,-195.1351 1087.0737,-162.6998 1159.0212,-145.1005 1215.3346,-135.6622"/>
<polygon fill="#000000" stroke="#000000" points="1215.99,-139.1018 1225.3023,-134.049 1214.8716,-132.1917 1215.99,-139.1018"/>
</g>
<!-- terraform/security -->
<g id="node12" class="node">
<title>terraform/security</title>
<ellipse fill="none" stroke="#000000" cx="1307.2532" cy="-477.1351" rx="74.9875" ry="18"/>
<text text-anchor="middle" x="1307.2532" y="-473.4351" font-family="Times,serif" font-size="14.00" fill="#000000">terraform/security</text>
</g>
<!-- @ansible/worker&#45;provision&#45;&gt;terraform/security -->
<g id="edge15" class="edge">
<title>@ansible/worker&#45;provision&#45;&gt;terraform/security</title>
<path fill="none" stroke="#000000" d="M935.9285,-355.2356C1015.222,-381.2663 1170.9833,-432.4001 1253.3073,-459.4256"/>
<polygon fill="#000000" stroke="#000000" points="1252.3798,-462.8049 1262.9727,-462.5986 1254.5632,-456.1541 1252.3798,-462.8049"/>
</g>
<!-- terraform/private -->
<g id="node13" class="node">
<title>terraform/private</title>
<ellipse fill="none" stroke="#000000" cx="2557.3114" cy="-253.1351" rx="71.4873" ry="18"/>
<text text-anchor="middle" x="2557.3114" y="-249.4351" font-family="Times,serif" font-size="14.00" fill="#000000">terraform/private</text>
</g>
<!-- @ansible/worker&#45;provision&#45;&gt;terraform/private -->
<g id="edge16" class="edge">
<title>@ansible/worker&#45;provision&#45;&gt;terraform/private</title>
<path fill="none" stroke="#000000" d="M892.3179,-321.1073C906.8237,-276.1413 950.8508,-158.3267 1030.1246,-98.1351 1131.7491,-20.973 1179.6541,-23.1351 1307.2532,-23.1351 1307.2532,-23.1351 1307.2532,-23.1351 1908.5594,-23.1351 2155.7176,-23.1351 2426.972,-173.265 2522.0572,-230.9382"/>
<polygon fill="#000000" stroke="#000000" points="2520.3446,-233.9934 2530.7023,-236.2227 2523.9955,-228.0209 2520.3446,-233.9934"/>
</g>
<!-- terraform/buckets&#45;&gt;packer/source&#45;ami* -->
<g id="edge17" class="edge">
<title>terraform/buckets&#45;&gt;packer/source&#45;ami*</title>
<path fill="none" stroke="#000000" d="M1128.2371,-310.2956C1149.8022,-324.6726 1182.3742,-344.9109 1213.0115,-358.1351 1222.27,-362.1314 1232.2911,-365.7242 1242.2257,-368.8861"/>
<polygon fill="#000000" stroke="#000000" points="1241.5139,-372.3283 1252.1002,-371.9034 1243.5595,-365.6339 1241.5139,-372.3283"/>
</g>
<!-- terraform/buckets&#45;&gt;terraform/bastion -->
<g id="edge18" class="edge">
<title>terraform/buckets&#45;&gt;terraform/bastion</title>
<path fill="none" stroke="#000000" d="M1117.7659,-311.122C1141.776,-341.0774 1190.0243,-399.1841 1213.0115,-412.1351 1287.464,-454.0819 1319.5366,-425.9367 1401.4948,-450.1351 1428.5927,-458.1359 1458.0458,-469.6069 1481.4873,-479.4389"/>
<polygon fill="#000000" stroke="#000000" points="1480.2395,-482.7115 1490.8122,-483.3962 1482.9741,-476.2677 1480.2395,-482.7115"/>
</g>
<!-- terraform/buckets&#45;&gt;packer/vault&#45;ami* -->
<g id="edge19" class="edge">
<title>terraform/buckets&#45;&gt;packer/vault&#45;ami*</title>
<path fill="none" stroke="#000000" d="M1172.9632,-287.0294C1233.4503,-281.3861 1323.4655,-272.2127 1401.4948,-261.1351 1419.5406,-258.5732 1438.9797,-255.3561 1457.0055,-252.1791"/>
<polygon fill="#000000" stroke="#000000" points="1457.6263,-255.6237 1466.8567,-250.4227 1456.3975,-248.7324 1457.6263,-255.6237"/>
</g>
<!-- terraform/buckets&#45;&gt;terraform/vault -->
<g id="edge20" class="edge">
<title>terraform/buckets&#45;&gt;terraform/vault</title>
<path fill="none" stroke="#000000" d="M1149.4344,-278.9529C1168.9477,-273.1202 1192.0069,-266.4914 1213.0115,-261.1351 1387.1061,-216.7401 1436.1626,-188.5906 1614.2791,-212.1351 1630.4175,-214.2684 1647.6459,-218.2523 1663.1908,-222.5172"/>
<polygon fill="#000000" stroke="#000000" points="1662.5586,-225.9761 1673.1346,-225.3438 1664.4726,-219.2428 1662.5586,-225.9761"/>
</g>
<!-- terraform/buckets&#45;&gt;terraform/dns -->
<g id="edge21" class="edge">
<title>terraform/buckets&#45;&gt;terraform/dns</title>
<path fill="none" stroke="#000000" d="M1162.209,-304.0753C1188.6786,-309.0136 1219.9278,-314.8435 1246.6293,-319.825"/>
<polygon fill="#000000" stroke="#000000" points="1246.1485,-323.2956 1256.6208,-321.689 1247.4324,-316.4143 1246.1485,-323.2956"/>
</g>
<!-- terraform/buckets&#45;&gt;terraform/vault&#45;volume -->
<g id="edge22" class="edge">
<title>terraform/buckets&#45;&gt;terraform/vault&#45;volume</title>
<path fill="none" stroke="#000000" d="M1113.5507,-274.9691C1130.3701,-245.9815 1167.064,-189.2663 1213.0115,-157.1351 1220.8936,-151.6232 1229.8036,-146.9953 1238.9219,-143.1277"/>
<polygon fill="#000000" stroke="#000000" points="1240.4445,-146.2897 1248.4651,-139.3672 1237.8782,-139.7771 1240.4445,-146.2897"/>
</g>
<!-- terraform/buckets&#45;&gt;terraform/security -->
<g id="edge23" class="edge">
<title>terraform/buckets&#45;&gt;terraform/security</title>
<path fill="none" stroke="#000000" d="M1111.859,-311.1565C1127.3077,-342.8045 1163.4772,-408.4815 1213.0115,-445.1351 1221.838,-451.6664 1232.0895,-456.927 1242.5146,-461.1452"/>
<polygon fill="#000000" stroke="#000000" points="1241.5093,-464.506 1252.1017,-464.7326 1243.9625,-457.9499 1241.5093,-464.506"/>
</g>
<!-- terraform/buckets&#45;&gt;terraform/private -->
<g id="edge24" class="edge">
<title>terraform/buckets&#45;&gt;terraform/private</title>
<path fill="none" stroke="#000000" d="M1120.1171,-275.2805C1139.9739,-255.2387 1175.3326,-223.7474 1213.0115,-210.1351 1306.9392,-176.2018 1337.6503,-202.3579 1437.4948,-200.1351 1829.9415,-191.3984 2299.0787,-229.3246 2480.4784,-245.8107"/>
<polygon fill="#000000" stroke="#000000" points="2480.1787,-249.2978 2490.4557,-246.7223 2480.8157,-242.3269 2480.1787,-249.2978"/>
</g>
<!-- terraform/vault&#45;&gt;terraform/private -->
<g id="edge28" class="edge">
<title>terraform/vault&#45;&gt;terraform/private</title>
<path fill="none" stroke="#000000" d="M1779.0007,-240.2047C1930.3086,-242.7184 2308.3613,-248.9992 2475.5666,-251.7771"/>
<polygon fill="#000000" stroke="#000000" points="2475.731,-255.2802 2485.7878,-251.9469 2475.8473,-248.2811 2475.731,-255.2802"/>
</g>
<!-- terraform/vault&#45;&gt;terraform/services -->
<g id="edge30" class="edge">
<title>terraform/vault&#45;&gt;terraform/services</title>
<path fill="none" stroke="#000000" d="M1778.8575,-237.6765C1911.1337,-234.7558 2223.5364,-228.2853 2485.8178,-226.1351 2549.3655,-225.6142 2565.7038,-218.5969 2628.8051,-226.1351 2646.6434,-228.2661 2665.7539,-232.2521 2683.0208,-236.5196"/>
<polygon fill="#000000" stroke="#000000" points="2682.3958,-239.9722 2692.9507,-239.0529 2684.1262,-233.1895 2682.3958,-239.9722"/>
</g>
<!-- terraform/vault&#45;&gt;@shell/root&#45;certificates -->
<g id="edge43" class="edge">
<title>terraform/vault&#45;&gt;@shell/root&#45;certificates</title>
<path fill="none" stroke="#000000" d="M1727.6139,-256.9216C1745.0922,-279.6767 1778.2552,-318.9155 1814.9677,-342.1351 1823.4578,-347.5049 1832.9549,-352.0915 1842.5555,-355.9725"/>
<polygon fill="#000000" stroke="#000000" points="1841.566,-359.3406 1852.1572,-359.6211 1844.0526,-352.7971 1841.566,-359.3406"/>
</g>
<!-- terraform/vault&#45;&gt;@shell/init&#45;vault -->
<g id="edge46" class="edge">
<title>terraform/vault&#45;&gt;@shell/init&#45;vault</title>
<path fill="none" stroke="#000000" d="M1773.9231,-246.2335C1898.0412,-266.0961 2183.9192,-320.0305 2307.7059,-346.9424"/>
<polygon fill="#000000" stroke="#000000" points="2307.2365,-350.4226 2317.7543,-349.1467 2308.7365,-343.5852 2307.2365,-350.4226"/>
</g>
<!-- terraform/vault&#45;&gt;@shell/init&#45;vault -->
<g id="edge53" class="edge">
<title>terraform/vault&#45;&gt;@shell/init&#45;vault</title>
<path fill="none" stroke="#000000" d="M1761.2521,-251.6257C1873.1415,-276.5314 2157.5762,-330.4479 2292.9076,-352.6964"/>
<polygon fill="#000000" stroke="#000000" points="2292.3496,-356.1515 2302.7825,-354.3062 2293.476,-349.2427 2292.3496,-356.1515"/>
</g>
<!-- terraform/dns&#45;&gt;terraform/vault -->
<g id="edge34" class="edge">
<title>terraform/dns&#45;&gt;terraform/vault</title>
<path fill="none" stroke="#000000" d="M1357.1605,-321.4344C1418.0654,-309.397 1524.0847,-287.8002 1614.2791,-266.1351 1628.8879,-262.626 1644.6113,-258.5426 1659.178,-254.63"/>
<polygon fill="#000000" stroke="#000000" points="1660.312,-257.9491 1669.05,-251.9576 1658.4828,-251.1922 1660.312,-257.9491"/>
</g>
<!-- terraform/dns&#45;&gt;terraform/private -->
<g id="edge33" class="edge">
<title>terraform/dns&#45;&gt;terraform/private</title>
<path fill="none" stroke="#000000" d="M1365.4535,-327.5036C1568.3716,-314.8421 2244.8951,-272.629 2477.7566,-258.0991"/>
<polygon fill="#000000" stroke="#000000" points="2478.0822,-261.5857 2487.8447,-257.4697 2477.6462,-254.5993 2478.0822,-261.5857"/>
</g>
<!-- terraform/dns&#45;&gt;terraform/prometheus -->
<g id="edge54" class="edge">
<title>terraform/dns&#45;&gt;terraform/prometheus</title>
<path fill="none" stroke="#000000" d="M1358.7895,-340.0925C1385.5575,-344.7449 1418.8119,-350.5248 1448.5897,-355.7004"/>
<polygon fill="#000000" stroke="#000000" points="1448.0889,-359.1657 1458.5406,-357.4299 1449.2877,-352.2691 1448.0889,-359.1657"/>
</g>
<!-- terraform/vault&#45;volume&#45;&gt;terraform/vault -->
<g id="edge32" class="edge">
<title>terraform/vault&#45;volume&#45;&gt;terraform/vault</title>
<path fill="none" stroke="#000000" d="M1394.5004,-131.9498C1457.1944,-138.8747 1542.8931,-152.5499 1614.2791,-179.1351 1639.0218,-188.3497 1664.5273,-203.6911 1683.6323,-216.554"/>
<polygon fill="#000000" stroke="#000000" points="1681.7102,-219.4799 1691.9342,-222.2586 1685.6746,-213.7106 1681.7102,-219.4799"/>
</g>
<!-- terraform/security&#45;&gt;terraform/bastion -->
<g id="edge37" class="edge">
<title>terraform/security&#45;&gt;terraform/bastion</title>
<path fill="none" stroke="#000000" d="M1376.4303,-484.0961C1399.3154,-486.3989 1424.926,-488.9759 1448.3932,-491.3373"/>
<polygon fill="#000000" stroke="#000000" points="1448.3546,-494.851 1458.6548,-492.3699 1449.0555,-487.8862 1448.3546,-494.851"/>
</g>
<!-- terraform/security&#45;&gt;terraform/vault -->
<g id="edge35" class="edge">
<title>terraform/security&#45;&gt;terraform/vault</title>
<path fill="none" stroke="#000000" d="M1380.0305,-472.8369C1446.6146,-465.6748 1545.0141,-446.6394 1614.2791,-396.1351 1659.8365,-362.9171 1689.8732,-302.1552 1704.4056,-266.7533"/>
<polygon fill="#000000" stroke="#000000" points="1707.8165,-267.6474 1708.256,-257.0617 1701.3111,-265.0629 1707.8165,-267.6474"/>
</g>
<!-- terraform/security&#45;&gt;terraform/private -->
<g id="edge38" class="edge">
<title>terraform/security&#45;&gt;terraform/private</title>
<path fill="none" stroke="#000000" d="M1340.3207,-493.2875C1366.1033,-504.9571 1403.1753,-519.7451 1437.4948,-526.1351 1791.3919,-592.0278 1894.9966,-604.4422 2247.4325,-531.1351 2343.4614,-511.161 2376.9275,-508.7668 2449.8178,-443.1351 2500.8373,-397.1963 2533.4764,-321.1356 2548.2013,-280.5843"/>
<polygon fill="#000000" stroke="#000000" points="2551.5281,-281.6745 2551.5592,-271.0797 2544.9279,-279.3426 2551.5281,-281.6745"/>
</g>
<!-- terraform/private&#45;&gt;terraform/services -->
<g id="edge31" class="edge">
<title>terraform/private&#45;&gt;terraform/services</title>
<path fill="none" stroke="#000000" d="M2628.8061,-253.1351C2637.2309,-253.1351 2645.8933,-253.1351 2654.4879,-253.1351"/>
<polygon fill="#000000" stroke="#000000" points="2654.5278,-256.6352 2664.5277,-253.1351 2654.5277,-249.6352 2654.5278,-256.6352"/>
</g>
<!-- @terraform/vpc -->
<g id="node14" class="node">
<title>@terraform/vpc</title>
<ellipse fill="none" stroke="#000000" cx="471.0646" cy="-339.1351" rx="67.6881" ry="18"/>
<text text-anchor="middle" x="471.0646" y="-335.4351" font-family="Times,serif" font-size="14.00" fill="#000000">@terraform/vpc</text>
</g>
<!-- @ansible/machines* -->
<g id="node15" class="node">
<title>@ansible/machines*</title>
<ellipse fill="none" stroke="#000000" cx="659.1511" cy="-339.1351" rx="84.485" ry="18"/>
<text text-anchor="middle" x="659.1511" y="-335.4351" font-family="Times,serif" font-size="14.00" fill="#000000">@ansible/machines*</text>
</g>
<!-- @terraform/vpc&#45;&gt;@ansible/machines* -->
<g id="edge26" class="edge">
<title>@terraform/vpc&#45;&gt;@ansible/machines*</title>
<path fill="none" stroke="#000000" d="M538.7024,-339.1351C547.0291,-339.1351 555.6563,-339.1351 564.2926,-339.1351"/>
<polygon fill="#000000" stroke="#000000" points="564.4178,-342.6352 574.4177,-339.1351 564.4177,-335.6352 564.4178,-342.6352"/>
</g>
<!-- @ansible/machines*&#45;&gt;@ansible/worker&#45;provision -->
<g id="edge27" class="edge">
<title>@ansible/machines*&#45;&gt;@ansible/worker&#45;provision</title>
<path fill="none" stroke="#000000" d="M743.9505,-339.1351C752.3126,-339.1351 760.899,-339.1351 769.5121,-339.1351"/>
<polygon fill="#000000" stroke="#000000" points="769.6236,-342.6352 779.6236,-339.1351 769.6236,-335.6352 769.6236,-342.6352"/>
</g>
<!-- chef/ubuntu_java -->
<g id="node17" class="node">
<title>chef/ubuntu_java</title>
<ellipse fill="none" stroke="#000000" cx="2142.7918" cy="-504.1351" rx="71.4873" ry="18"/>
<text text-anchor="middle" x="2142.7918" y="-500.4351" font-family="Times,serif" font-size="14.00" fill="#000000">chef/ubuntu_java</text>
</g>
<!-- packer/ubuntu&#45;java* -->
<g id="node18" class="node">
<title>packer/ubuntu&#45;java*</title>
<ellipse fill="none" stroke="#000000" cx="2366.6251" cy="-416.1351" rx="83.3857" ry="18"/>
<text text-anchor="middle" x="2366.6251" y="-412.4351" font-family="Times,serif" font-size="14.00" fill="#000000">packer/ubuntu&#45;java*</text>
</g>
<!-- chef/ubuntu_java&#45;&gt;packer/ubuntu&#45;java* -->
<g id="edge39" class="edge">
<title>chef/ubuntu_java&#45;&gt;packer/ubuntu&#45;java*</title>
<path fill="none" stroke="#000000" d="M2191.469,-490.8171C2209.267,-485.5384 2229.4413,-479.0719 2247.4325,-472.1351 2273.8691,-461.9422 2302.6419,-448.4948 2325.2941,-437.3324"/>
<polygon fill="#000000" stroke="#000000" points="2326.889,-440.4482 2334.2863,-432.8633 2323.7735,-434.1797 2326.889,-440.4482"/>
</g>
<!-- packer/ubuntu&#45;java*&#45;&gt;terraform/private -->
<g id="edge48" class="edge">
<title>packer/ubuntu&#45;java*&#45;&gt;terraform/private</title>
<path fill="none" stroke="#000000" d="M2423.3572,-402.7202C2432.6522,-399.1482 2441.8404,-394.6855 2449.8178,-389.1351 2491.2363,-360.3173 2524.5087,-310.9146 2542.5402,-280.2495"/>
<polygon fill="#000000" stroke="#000000" points="2545.6906,-281.7919 2547.6391,-271.3778 2539.6215,-278.3038 2545.6906,-281.7919"/>
</g>
<!-- @ansible&#45;local/devbox -->
<g id="node19" class="node">
<title>@ansible&#45;local/devbox</title>
<ellipse fill="none" stroke="#000000" cx="92.2918" cy="-339.1351" rx="92.0841" ry="18"/>
<text text-anchor="middle" x="92.2918" y="-335.4351" font-family="Times,serif" font-size="14.00" fill="#000000">@ansible&#45;local/devbox</text>
</g>
<!-- @terraform/users -->
<g id="node20" class="node">
<title>@terraform/users</title>
<ellipse fill="none" stroke="#000000" cx="294.0271" cy="-339.1351" rx="73.387" ry="18"/>
<text text-anchor="middle" x="294.0271" y="-335.4351" font-family="Times,serif" font-size="14.00" fill="#000000">@terraform/users</text>
</g>
<!-- @ansible&#45;local/devbox&#45;&gt;@terraform/users -->
<g id="edge40" class="edge">
<title>@ansible&#45;local/devbox&#45;&gt;@terraform/users</title>
<path fill="none" stroke="#000000" d="M184.5988,-339.1351C193.1549,-339.1351 201.7937,-339.1351 210.2666,-339.1351"/>
<polygon fill="#000000" stroke="#000000" points="210.5027,-342.6352 220.5026,-339.1351 210.5026,-335.6352 210.5027,-342.6352"/>
</g>
<!-- @terraform/users&#45;&gt;@terraform/vpc -->
<g id="edge41" class="edge">
<title>@terraform/users&#45;&gt;@terraform/vpc</title>
<path fill="none" stroke="#000000" d="M367.5689,-339.1351C376.0114,-339.1351 384.6412,-339.1351 393.1388,-339.1351"/>
<polygon fill="#000000" stroke="#000000" points="393.417,-342.6352 403.417,-339.1351 393.417,-335.6352 393.417,-342.6352"/>
</g>
<!-- @shell/root&#45;certificates&#45;&gt;@shell/init&#45;vault -->
<g id="edge52" class="edge">
<title>@shell/root&#45;certificates&#45;&gt;@shell/init&#45;vault</title>
<path fill="none" stroke="#000000" d="M2001.5318,-371.6995C2085.1212,-369.5097 2206.64,-366.3263 2286.1482,-364.2434"/>
<polygon fill="#000000" stroke="#000000" points="2286.6913,-367.7305 2296.5962,-363.9697 2286.5079,-360.7329 2286.6913,-367.7305"/>
</g>
<!-- @shell/root&#45;certificates&#45;&gt;packer/authenticated&#45;ami* -->
<g id="edge47" class="edge">
<title>@shell/root&#45;certificates&#45;&gt;packer/authenticated&#45;ami*</title>
<path fill="none" stroke="#000000" d="M1980.1096,-385.7429C2004.2203,-389.6544 2031.3835,-394.0611 2056.5083,-398.1372"/>
<polygon fill="#000000" stroke="#000000" points="2055.9627,-401.5944 2066.3942,-399.741 2057.0837,-394.6847 2055.9627,-401.5944"/>
</g>
<!-- packer/authenticated&#45;ami*&#45;&gt;packer/ubuntu&#45;java* -->
<g id="edge50" class="edge">
<title>packer/authenticated&#45;ami*&#45;&gt;packer/ubuntu&#45;java*</title>
<path fill="none" stroke="#000000" d="M2247.1723,-414.0005C2255.9375,-414.1571 2264.7647,-414.3148 2273.4374,-414.4698"/>
<polygon fill="#000000" stroke="#000000" points="2273.4735,-417.9709 2283.5345,-414.6503 2273.5986,-410.9721 2273.4735,-417.9709"/>
</g>
<!-- packer/authenticated&#45;ami*&#45;&gt;@shell/init&#45;vault -->
<g id="edge51" class="edge">
<title>packer/authenticated&#45;ami*&#45;&gt;@shell/init&#45;vault</title>
<path fill="none" stroke="#000000" d="M2206.9335,-397.8071C2237.2262,-391.0403 2273.2677,-382.9894 2303.4381,-376.2499"/>
<polygon fill="#000000" stroke="#000000" points="2304.4315,-379.6143 2313.4279,-374.0184 2302.9054,-372.7827 2304.4315,-379.6143"/>
</g>
</g>
</svg>
