<?xml version="1.0" encoding="UTF-8" standalone="no"?>
<!DOCTYPE svg PUBLIC "-//W3C//DTD SVG 1.1//EN"
 "http://www.w3.org/Graphics/SVG/1.1/DTD/svg11.dtd">
<!-- Generated by graphviz version 2.40.1 (20161225.0304)
 -->
<!-- Title: G Pages: 1 -->
<svg width="2814pt" height="620pt"
 viewBox="0.00 0.00 2814.49 620.39" xmlns="http://www.w3.org/2000/svg" xmlns:xlink="http://www.w3.org/1999/xlink">
<g id="graph0" class="graph" transform="scale(1 1) rotate(0) translate(4 616.3916)">
<title>G</title>
<polygon fill="#ffffff" stroke="transparent" points="-4,4 -4,-616.3916 2810.4925,-616.3916 2810.4925,4 -4,4"/>
<text text-anchor="middle" x="1403.2463" y="-7.8" font-family="Times,serif" font-size="14.00" fill="#000000">pipeline</text>
<!-- packer/source&#45;ami* -->
<g id="node1" class="node">
<title>packer/source&#45;ami*</title>
<ellipse fill="none" stroke="#000000" cx="1298.154" cy="-319" rx="80.6858" ry="18"/>
<text text-anchor="middle" x="1298.154" y="-315.3" font-family="Times,serif" font-size="14.00" fill="#000000">packer/source&#45;ami*</text>
</g>
<!-- terraform/bastion -->
<g id="node2" class="node">
<title>terraform/bastion</title>
<ellipse fill="none" stroke="#000000" cx="1516.7878" cy="-525" rx="72.2875" ry="18"/>
<text text-anchor="middle" x="1516.7878" y="-521.3" font-family="Times,serif" font-size="14.00" fill="#000000">terraform/bastion</text>
</g>
<!-- packer/source&#45;ami*&#45;&gt;terraform/bastion -->
<g id="edge1" class="edge">
<title>packer/source&#45;ami*&#45;&gt;terraform/bastion</title>
<path fill="none" stroke="#000000" d="M1316.7946,-336.5634C1355.761,-373.2782 1445.9209,-458.2282 1490.6498,-500.3725"/>
<polygon fill="#000000" stroke="#000000" points="1488.5159,-503.1707 1498.1944,-507.481 1493.3163,-498.0759 1488.5159,-503.1707"/>
</g>
<!-- packer/vault&#45;ami* -->
<g id="node3" class="node">
<title>packer/vault&#45;ami*</title>
<ellipse fill="none" stroke="#000000" cx="1516.7878" cy="-395" rx="75.2868" ry="18"/>
<text text-anchor="middle" x="1516.7878" y="-391.3" font-family="Times,serif" font-size="14.00" fill="#000000">packer/vault&#45;ami*</text>
</g>
<!-- packer/source&#45;ami*&#45;&gt;packer/vault&#45;ami* -->
<g id="edge2" class="edge">
<title>packer/source&#45;ami*&#45;&gt;packer/vault&#45;ami*</title>
<path fill="none" stroke="#000000" d="M1342.7775,-334.0231C1358.4771,-339.3428 1376.2329,-345.3977 1392.3956,-351 1416.3398,-359.2996 1442.8194,-368.6429 1465.1715,-376.5779"/>
<polygon fill="#000000" stroke="#000000" points="1464.2072,-379.9495 1474.8019,-380.0001 1466.5511,-373.3536 1464.2072,-379.9495"/>
</g>
<!-- packer/authenticated&#45;ami* -->
<g id="node21" class="node">
<title>packer/authenticated&#45;ami*</title>
<ellipse fill="none" stroke="#000000" cx="2133.6926" cy="-319" rx="104.7816" ry="18"/>
<text text-anchor="middle" x="2133.6926" y="-315.3" font-family="Times,serif" font-size="14.00" fill="#000000">packer/authenticated&#45;ami*</text>
</g>
<!-- packer/source&#45;ami*&#45;&gt;packer/authenticated&#45;ami* -->
<g id="edge45" class="edge">
<title>packer/source&#45;ami*&#45;&gt;packer/authenticated&#45;ami*</title>
<path fill="none" stroke="#000000" d="M1372.1276,-326.3363C1390.4937,-327.8575 1410.1448,-329.2307 1428.3956,-330 1540.0564,-334.707 1851.0197,-327.1104 2020.3298,-322.3618"/>
<polygon fill="#000000" stroke="#000000" points="2020.6284,-325.8549 2030.5258,-322.0745 2020.4311,-318.8576 2020.6284,-325.8549"/>
</g>
<!-- terraform/prometheus -->
<g id="node22" class="node">
<title>terraform/prometheus</title>
<ellipse fill="none" stroke="#000000" cx="1516.7878" cy="-303" rx="88.2844" ry="18"/>
<text text-anchor="middle" x="1516.7878" y="-299.3" font-family="Times,serif" font-size="14.00" fill="#000000">terraform/prometheus</text>
</g>
<!-- packer/source&#45;ami*&#45;&gt;terraform/prometheus -->
<g id="edge51" class="edge">
<title>packer/source&#45;ami*&#45;&gt;terraform/prometheus</title>
<path fill="none" stroke="#000000" d="M1374.9286,-313.3815C1390.6203,-312.2332 1407.2962,-311.0128 1423.4925,-309.8275"/>
<polygon fill="#000000" stroke="#000000" points="1423.7841,-313.3156 1433.5019,-309.095 1423.2731,-306.3343 1423.7841,-313.3156"/>
</g>
<!-- terraform/vault -->
<g id="node7" class="node">
<title>terraform/vault</title>
<ellipse fill="none" stroke="#000000" cx="1705.5242" cy="-358" rx="64.189" ry="18"/>
<text text-anchor="middle" x="1705.5242" y="-354.3" font-family="Times,serif" font-size="14.00" fill="#000000">terraform/vault</text>
</g>
<!-- terraform/bastion&#45;&gt;terraform/vault -->
<g id="edge40" class="edge">
<title>terraform/bastion&#45;&gt;terraform/vault</title>
<path fill="none" stroke="#000000" d="M1570.3537,-512.8654C1582.7958,-508.1813 1595.2801,-501.7608 1605.1799,-493 1631.6751,-469.5531 1620.3739,-450.6157 1641.1799,-422 1651.5928,-407.6786 1665.2635,-393.5973 1677.325,-382.3054"/>
<polygon fill="#000000" stroke="#000000" points="1679.9523,-384.6455 1684.9683,-375.3133 1675.2274,-379.4806 1679.9523,-384.6455"/>
</g>
<!-- terraform/services -->
<g id="node14" class="node">
<title>terraform/services</title>
<ellipse fill="none" stroke="#000000" cx="2731.0992" cy="-459" rx="75.2868" ry="18"/>
<text text-anchor="middle" x="2731.0992" y="-455.3" font-family="Times,serif" font-size="14.00" fill="#000000">terraform/services</text>
</g>
<!-- terraform/bastion&#45;&gt;terraform/services -->
<g id="edge25" class="edge">
<title>terraform/bastion&#45;&gt;terraform/services</title>
<path fill="none" stroke="#000000" d="M1589.0789,-524.2529C1639.7095,-523.5629 1708.936,-522.2861 1769.8685,-520 2147.8852,-505.8173 2242.9589,-507.0511 2619.7059,-473 2631.3077,-471.9514 2643.5637,-470.6294 2655.5361,-469.2187"/>
<polygon fill="#000000" stroke="#000000" points="2655.9964,-472.6887 2665.5056,-468.017 2655.1586,-465.739 2655.9964,-472.6887"/>
</g>
<!-- @shell/root&#45;certificates -->
<g id="node19" class="node">
<title>@shell/root&#45;certificates</title>
<ellipse fill="none" stroke="#000000" cx="1899.4602" cy="-413" rx="93.6835" ry="18"/>
<text text-anchor="middle" x="1899.4602" y="-409.3" font-family="Times,serif" font-size="14.00" fill="#000000">@shell/root&#45;certificates</text>
</g>
<!-- terraform/bastion&#45;&gt;@shell/root&#45;certificates -->
<g id="edge38" class="edge">
<title>terraform/bastion&#45;&gt;@shell/root&#45;certificates</title>
<path fill="none" stroke="#000000" d="M1558.3311,-510.2667C1582.4105,-501.9046 1613.3747,-491.4535 1641.1799,-483 1705.8003,-463.3539 1780.3216,-443.4464 1832.6584,-429.9103"/>
<polygon fill="#000000" stroke="#000000" points="1833.6833,-433.2606 1842.4925,-427.3743 1831.9353,-426.4824 1833.6833,-433.2606"/>
</g>
<!-- @shell/init&#45;vault -->
<g id="node20" class="node">
<title>@shell/init&#45;vault</title>
<ellipse fill="none" stroke="#000000" cx="2357.526" cy="-374" rx="70.3881" ry="18"/>
<text text-anchor="middle" x="2357.526" y="-370.3" font-family="Times,serif" font-size="14.00" fill="#000000">@shell/init&#45;vault</text>
</g>
<!-- terraform/bastion&#45;&gt;@shell/init&#45;vault -->
<g id="edge41" class="edge">
<title>terraform/bastion&#45;&gt;@shell/init&#45;vault</title>
<path fill="none" stroke="#000000" d="M1585.3187,-519.2916C1714.5691,-507.5275 2002.5437,-476.555 2238.3333,-417 2262.951,-410.7822 2289.5992,-401.4303 2311.4428,-393.0343"/>
<polygon fill="#000000" stroke="#000000" points="2312.7583,-396.2781 2320.8025,-389.383 2310.2142,-389.7568 2312.7583,-396.2781"/>
</g>
<!-- packer/vault&#45;ami*&#45;&gt;terraform/vault -->
<g id="edge21" class="edge">
<title>packer/vault&#45;ami*&#45;&gt;terraform/vault</title>
<path fill="none" stroke="#000000" d="M1575.2126,-383.5464C1596.7119,-379.3316 1621.1374,-374.5432 1642.9849,-370.2602"/>
<polygon fill="#000000" stroke="#000000" points="1643.6819,-373.6903 1652.8217,-368.3318 1642.3352,-366.8211 1643.6819,-373.6903"/>
</g>
<!-- @ansible/worker&#45;provision -->
<g id="node4" class="node">
<title>@ansible/worker&#45;provision</title>
<ellipse fill="none" stroke="#000000" cx="877.7849" cy="-265" rx="107.4815" ry="18"/>
<text text-anchor="middle" x="877.7849" y="-261.3" font-family="Times,serif" font-size="14.00" fill="#000000">@ansible/worker&#45;provision</text>
</g>
<!-- @ansible/worker&#45;provision&#45;&gt;packer/source&#45;ami* -->
<g id="edge3" class="edge">
<title>@ansible/worker&#45;provision&#45;&gt;packer/source&#45;ami*</title>
<path fill="none" stroke="#000000" d="M963.1061,-275.9602C1037.7117,-285.544 1145.2414,-299.3571 1218.2083,-308.7303"/>
<polygon fill="#000000" stroke="#000000" points="1217.9034,-312.2198 1228.2678,-310.0225 1218.7953,-305.2769 1217.9034,-312.2198"/>
</g>
<!-- @ansible/worker&#45;provision&#45;&gt;terraform/bastion -->
<g id="edge4" class="edge">
<title>@ansible/worker&#45;provision&#45;&gt;terraform/bastion</title>
<path fill="none" stroke="#000000" d="M885.1114,-283.1859C902.5584,-324.3229 950.4474,-425.3392 1021.0254,-482 1152.0003,-587.1481 1225.3939,-569.9157 1392.3956,-552 1413.922,-549.6907 1437.1899,-545.1947 1457.7139,-540.5238"/>
<polygon fill="#000000" stroke="#000000" points="1458.608,-543.9093 1467.5493,-538.2256 1457.0152,-537.0929 1458.608,-543.9093"/>
</g>
<!-- @ansible/worker&#45;provision&#45;&gt;packer/vault&#45;ami* -->
<g id="edge5" class="edge">
<title>@ansible/worker&#45;provision&#45;&gt;packer/vault&#45;ami*</title>
<path fill="none" stroke="#000000" d="M929.9554,-280.7944C957.0167,-288.7679 990.6769,-298.346 1021.0254,-306 1101.7036,-326.3473 1122.1328,-330.6673 1203.9123,-346 1284.8302,-361.1712 1378.1314,-375.3589 1441.645,-384.5232"/>
<polygon fill="#000000" stroke="#000000" points="1441.1802,-387.9922 1451.5763,-385.9502 1442.1758,-381.0634 1441.1802,-387.9922"/>
</g>
<!-- gradle/app -->
<g id="node5" class="node">
<title>gradle/app</title>
<ellipse fill="none" stroke="#000000" cx="1094.4689" cy="-41" rx="48.1917" ry="18"/>
<text text-anchor="middle" x="1094.4689" y="-37.3" font-family="Times,serif" font-size="14.00" fill="#000000">gradle/app</text>
</g>
<!-- @ansible/worker&#45;provision&#45;&gt;gradle/app -->
<g id="edge6" class="edge">
<title>@ansible/worker&#45;provision&#45;&gt;gradle/app</title>
<path fill="none" stroke="#000000" d="M887.024,-246.9337C906.8652,-209.7222 956.9904,-123.7705 1021.0254,-73 1029.1175,-66.5841 1038.6938,-61.198 1048.2126,-56.7841"/>
<polygon fill="#000000" stroke="#000000" points="1049.8715,-59.8798 1057.6552,-52.6921 1047.088,-53.457 1049.8715,-59.8798"/>
</g>
<!-- terraform/buckets -->
<g id="node6" class="node">
<title>terraform/buckets</title>
<ellipse fill="none" stroke="#000000" cx="1094.4689" cy="-411" rx="73.387" ry="18"/>
<text text-anchor="middle" x="1094.4689" y="-407.3" font-family="Times,serif" font-size="14.00" fill="#000000">terraform/buckets</text>
</g>
<!-- @ansible/worker&#45;provision&#45;&gt;terraform/buckets -->
<g id="edge7" class="edge">
<title>@ansible/worker&#45;provision&#45;&gt;terraform/buckets</title>
<path fill="none" stroke="#000000" d="M896.9643,-282.9929C923.3637,-307.0958 973.0923,-350.1657 1021.0254,-379 1028.5589,-383.5318 1036.8499,-387.7767 1045.0649,-391.6"/>
<polygon fill="#000000" stroke="#000000" points="1043.707,-394.8268 1054.2632,-395.7303 1046.5744,-388.441 1043.707,-394.8268"/>
</g>
<!-- @ansible/worker&#45;provision&#45;&gt;terraform/vault -->
<g id="edge8" class="edge">
<title>@ansible/worker&#45;provision&#45;&gt;terraform/vault</title>
<path fill="none" stroke="#000000" d="M907.2486,-247.5326C1011.5985,-194.9439 1369.9329,-52.1341 1605.1799,-194 1655.9566,-224.6209 1685.7432,-291.9124 1698.3633,-330.2912"/>
<polygon fill="#000000" stroke="#000000" points="1695.0221,-331.334 1701.338,-339.8405 1701.7054,-329.252 1695.0221,-331.334"/>
</g>
<!-- @ansible/worker&#45;provision&#45;&gt;terraform/vault -->
<g id="edge32" class="edge">
<title>@ansible/worker&#45;provision&#45;&gt;terraform/vault</title>
<path fill="none" stroke="#000000" d="M922.4013,-248.5787C1042.7731,-200.9722 1380.2436,-76.352 1605.1799,-212 1650.6524,-239.4222 1679.2911,-296.2539 1693.842,-330.5156"/>
<polygon fill="#000000" stroke="#000000" points="1690.6877,-332.047 1697.7419,-339.952 1697.157,-329.3733 1690.6877,-332.047"/>
</g>
<!-- terraform/dns -->
<g id="node8" class="node">
<title>terraform/dns</title>
<ellipse fill="none" stroke="#000000" cx="1298.154" cy="-265" rx="59.2899" ry="18"/>
<text text-anchor="middle" x="1298.154" y="-261.3" font-family="Times,serif" font-size="14.00" fill="#000000">terraform/dns</text>
</g>
<!-- @ansible/worker&#45;provision&#45;&gt;terraform/dns -->
<g id="edge9" class="edge">
<title>@ansible/worker&#45;provision&#45;&gt;terraform/dns</title>
<path fill="none" stroke="#000000" d="M985.2219,-265C1061.7664,-265 1162.4231,-265 1228.6424,-265"/>
<polygon fill="#000000" stroke="#000000" points="1228.9656,-268.5001 1238.9655,-265 1228.9655,-261.5001 1228.9656,-268.5001"/>
</g>
<!-- terraform/vault&#45;volume -->
<g id="node9" class="node">
<title>terraform/vault&#45;volume</title>
<ellipse fill="none" stroke="#000000" cx="1298.154" cy="-211" rx="94.4839" ry="18"/>
<text text-anchor="middle" x="1298.154" y="-207.3" font-family="Times,serif" font-size="14.00" fill="#000000">terraform/vault&#45;volume</text>
</g>
<!-- @ansible/worker&#45;provision&#45;&gt;terraform/vault&#45;volume -->
<g id="edge10" class="edge">
<title>@ansible/worker&#45;provision&#45;&gt;terraform/vault&#45;volume</title>
<path fill="none" stroke="#000000" d="M963.1061,-254.0398C1034.8466,-244.8241 1137.0312,-231.6976 1209.6529,-222.3687"/>
<polygon fill="#000000" stroke="#000000" points="1210.2252,-225.8241 1219.6977,-221.0784 1209.3332,-218.8811 1210.2252,-225.8241"/>
</g>
<!-- terraform/security -->
<g id="node10" class="node">
<title>terraform/security</title>
<ellipse fill="none" stroke="#000000" cx="1298.154" cy="-525" rx="74.9875" ry="18"/>
<text text-anchor="middle" x="1298.154" y="-521.3" font-family="Times,serif" font-size="14.00" fill="#000000">terraform/security</text>
</g>
<!-- @ansible/worker&#45;provision&#45;&gt;terraform/security -->
<g id="edge11" class="edge">
<title>@ansible/worker&#45;provision&#45;&gt;terraform/security</title>
<path fill="none" stroke="#000000" d="M887.8723,-283.102C908.3529,-318.2115 958.2385,-395.8052 1021.0254,-438 1082.7477,-479.4794 1165.3203,-502.0399 1224.24,-513.7137"/>
<polygon fill="#000000" stroke="#000000" points="1223.7387,-517.1813 1234.2196,-515.632 1225.0601,-510.3072 1223.7387,-517.1813"/>
</g>
<!-- terraform/private -->
<g id="node11" class="node">
<title>terraform/private</title>
<ellipse fill="none" stroke="#000000" cx="2548.2122" cy="-292" rx="71.4873" ry="18"/>
<text text-anchor="middle" x="2548.2122" y="-288.3" font-family="Times,serif" font-size="14.00" fill="#000000">terraform/private</text>
</g>
<!-- @ansible/worker&#45;provision&#45;&gt;terraform/private -->
<g id="edge12" class="edge">
<title>@ansible/worker&#45;provision&#45;&gt;terraform/private</title>
<path fill="none" stroke="#000000" d="M897.5996,-246.9015C923.9241,-223.7747 972.7479,-183.9921 1021.0254,-161 1136.1228,-106.185 1170.6702,-87 1298.154,-87 1298.154,-87 1298.154,-87 2133.6926,-87 2276.6635,-87 2318.6609,-108.5513 2440.7186,-183 2476.6442,-204.9127 2509.2497,-241.4151 2528.8997,-266.0781"/>
<polygon fill="#000000" stroke="#000000" points="2526.38,-268.5381 2535.294,-274.2646 2531.8967,-264.2292 2526.38,-268.5381"/>
</g>
<!-- terraform/buckets&#45;&gt;packer/source&#45;ami* -->
<g id="edge13" class="edge">
<title>terraform/buckets&#45;&gt;packer/source&#45;ami*</title>
<path fill="none" stroke="#000000" d="M1129.9481,-394.9748C1164.0571,-379.5685 1215.7571,-356.2168 1252.832,-339.4709"/>
<polygon fill="#000000" stroke="#000000" points="1254.7251,-342.4564 1262.3979,-335.1502 1251.8437,-336.0769 1254.7251,-342.4564"/>
</g>
<!-- terraform/buckets&#45;&gt;terraform/bastion -->
<g id="edge14" class="edge">
<title>terraform/buckets&#45;&gt;terraform/bastion</title>
<path fill="none" stroke="#000000" d="M1129.9226,-426.9561C1151.0911,-436.0519 1178.684,-447.1633 1203.9123,-455 1215.8285,-458.7015 1364.595,-491.5699 1452.6254,-510.9235"/>
<polygon fill="#000000" stroke="#000000" points="1452.0032,-514.3702 1462.5215,-513.0984 1453.5059,-507.5334 1452.0032,-514.3702"/>
</g>
<!-- terraform/buckets&#45;&gt;packer/vault&#45;ami* -->
<g id="edge15" class="edge">
<title>terraform/buckets&#45;&gt;packer/vault&#45;ami*</title>
<path fill="none" stroke="#000000" d="M1167.0681,-408.2495C1240.6466,-405.4619 1354.4112,-401.1518 1432.0652,-398.2098"/>
<polygon fill="#000000" stroke="#000000" points="1432.4392,-401.6982 1442.2994,-397.8221 1432.1741,-394.7033 1432.4392,-401.6982"/>
</g>
<!-- terraform/buckets&#45;&gt;terraform/vault -->
<g id="edge16" class="edge">
<title>terraform/buckets&#45;&gt;terraform/vault</title>
<path fill="none" stroke="#000000" d="M1149.9291,-422.8726C1245.2532,-440.9495 1445.3367,-468.6353 1605.1799,-422 1632.3075,-414.0854 1659.0885,-396.3617 1678.1512,-381.5683"/>
<polygon fill="#000000" stroke="#000000" points="1680.4526,-384.2096 1686.083,-375.2347 1676.0847,-378.7395 1680.4526,-384.2096"/>
</g>
<!-- terraform/buckets&#45;&gt;terraform/dns -->
<g id="edge17" class="edge">
<title>terraform/buckets&#45;&gt;terraform/dns</title>
<path fill="none" stroke="#000000" d="M1106.0145,-393.2155C1123.8729,-367.1257 1160.6835,-318.6895 1203.9123,-292 1214.0949,-285.7133 1225.7933,-280.8432 1237.4068,-277.0857"/>
<polygon fill="#000000" stroke="#000000" points="1238.5293,-280.4033 1247.107,-274.1845 1236.5234,-273.6968 1238.5293,-280.4033"/>
</g>
<!-- terraform/buckets&#45;&gt;terraform/vault&#45;volume -->
<g id="edge18" class="edge">
<title>terraform/buckets&#45;&gt;terraform/vault&#45;volume</title>
<path fill="none" stroke="#000000" d="M1100.8038,-393.0193C1114.1542,-357.7743 1148.586,-279.4411 1203.9123,-238 1209.3122,-233.9553 1215.2994,-230.5159 1221.5627,-227.5912"/>
<polygon fill="#000000" stroke="#000000" points="1223.0392,-230.7672 1230.9002,-223.664 1220.3254,-224.3147 1223.0392,-230.7672"/>
</g>
<!-- terraform/buckets&#45;&gt;terraform/security -->
<g id="edge19" class="edge">
<title>terraform/buckets&#45;&gt;terraform/security</title>
<path fill="none" stroke="#000000" d="M1113.7518,-428.4571C1134.67,-446.6432 1169.6789,-474.9518 1203.9123,-493 1214.8875,-498.7862 1227.1202,-503.8441 1239.0414,-508.1269"/>
<polygon fill="#000000" stroke="#000000" points="1237.9106,-511.4391 1248.5053,-511.3946 1240.1953,-504.8224 1237.9106,-511.4391"/>
</g>
<!-- terraform/buckets&#45;&gt;terraform/private -->
<g id="edge20" class="edge">
<title>terraform/buckets&#45;&gt;terraform/private</title>
<path fill="none" stroke="#000000" d="M1103.0104,-429.13C1118.4806,-459.819 1154.2028,-521.6211 1203.9123,-552 1324.6564,-625.7902 1375.2812,-611 1516.7878,-611 1516.7878,-611 1516.7878,-611 2133.6926,-611 2279.5631,-611 2334.5084,-594.988 2440.7186,-495 2493.8316,-444.9985 2525.9238,-362.8112 2539.9184,-319.961"/>
<polygon fill="#000000" stroke="#000000" points="2543.3259,-320.7942 2543.0126,-310.204 2536.6534,-318.6781 2543.3259,-320.7942"/>
</g>
<!-- terraform/vault&#45;&gt;terraform/private -->
<g id="edge24" class="edge">
<title>terraform/vault&#45;&gt;terraform/private</title>
<path fill="none" stroke="#000000" d="M1736.6086,-342.194C1793.0719,-314.4692 1917.0184,-258.1079 2029.0519,-238 2195.7414,-208.0823 2395.7351,-250.6244 2491.5725,-275.7757"/>
<polygon fill="#000000" stroke="#000000" points="2490.7862,-279.1882 2501.3499,-278.3766 2492.5858,-272.4235 2490.7862,-279.1882"/>
</g>
<!-- terraform/vault&#45;&gt;terraform/services -->
<g id="edge26" class="edge">
<title>terraform/vault&#45;&gt;terraform/services</title>
<path fill="none" stroke="#000000" d="M1720.4593,-375.5428C1738.4415,-395.2523 1770.6506,-426.2789 1805.8685,-440 1941.8562,-492.9815 1987.7485,-459 2133.6926,-459 2133.6926,-459 2133.6926,-459 2357.526,-459 2456.1702,-459 2569.4661,-459 2645.1839,-459"/>
<polygon fill="#000000" stroke="#000000" points="2645.6132,-462.5001 2655.6132,-459 2645.6132,-455.5001 2645.6132,-462.5001"/>
</g>
<!-- terraform/vault&#45;&gt;@shell/root&#45;certificates -->
<g id="edge39" class="edge">
<title>terraform/vault&#45;&gt;@shell/root&#45;certificates</title>
<path fill="none" stroke="#000000" d="M1750.9936,-370.8951C1776.6316,-378.166 1809.0358,-387.3558 1837.0249,-395.2934"/>
<polygon fill="#000000" stroke="#000000" points="1836.147,-398.6824 1846.7225,-398.0437 1838.0569,-391.948 1836.147,-398.6824"/>
</g>
<!-- terraform/vault&#45;&gt;@shell/init&#45;vault -->
<g id="edge42" class="edge">
<title>terraform/vault&#45;&gt;@shell/init&#45;vault</title>
<path fill="none" stroke="#000000" d="M1769.228,-355.352C1889.809,-355.0388 2150.9359,-361.3378 2280.8751,-367.5809"/>
<polygon fill="#000000" stroke="#000000" points="2280.9773,-371.0902 2291.1378,-368.0879 2281.3227,-364.0987 2280.9773,-371.0902"/>
</g>
<!-- terraform/vault&#45;&gt;@shell/init&#45;vault -->
<g id="edge49" class="edge">
<title>terraform/vault&#45;&gt;@shell/init&#45;vault</title>
<path fill="none" stroke="#000000" d="M1766.863,-363.6514C1885.5023,-369.8746 2146.2913,-376.4269 2278.0306,-376.6531"/>
<polygon fill="#000000" stroke="#000000" points="2278.0576,-380.1531 2288.0593,-376.6578 2278.0609,-373.1531 2278.0576,-380.1531"/>
</g>
<!-- terraform/dns&#45;&gt;terraform/vault -->
<g id="edge30" class="edge">
<title>terraform/dns&#45;&gt;terraform/vault</title>
<path fill="none" stroke="#000000" d="M1351.2067,-256.9318C1414.0466,-249.5962 1520.8331,-244.2061 1605.1799,-276 1636.4026,-287.7691 1665.1275,-313.4241 1683.7692,-332.9252"/>
<polygon fill="#000000" stroke="#000000" points="1681.2702,-335.3776 1690.6421,-340.319 1686.3972,-330.6117 1681.2702,-335.3776"/>
</g>
<!-- terraform/dns&#45;&gt;terraform/private -->
<g id="edge29" class="edge">
<title>terraform/dns&#45;&gt;terraform/private</title>
<path fill="none" stroke="#000000" d="M1343.4815,-253.2317C1434.072,-230.1137 1634.8468,-181 1705.5242,-181 1705.5242,-181 1705.5242,-181 2133.6926,-181 2271.9462,-181 2310.324,-185.0509 2440.7186,-231 2467.1621,-240.3183 2494.6154,-256.0158 2515.1588,-269.1529"/>
<polygon fill="#000000" stroke="#000000" points="2513.5112,-272.2569 2523.7993,-274.7879 2517.3351,-266.3936 2513.5112,-272.2569"/>
</g>
<!-- terraform/dns&#45;&gt;terraform/prometheus -->
<g id="edge50" class="edge">
<title>terraform/dns&#45;&gt;terraform/prometheus</title>
<path fill="none" stroke="#000000" d="M1349.6903,-273.9574C1376.4583,-278.6098 1409.7127,-284.3896 1439.4905,-289.5652"/>
<polygon fill="#000000" stroke="#000000" points="1438.9897,-293.0306 1449.4414,-291.2948 1440.1885,-286.134 1438.9897,-293.0306"/>
</g>
<!-- terraform/vault&#45;volume&#45;&gt;terraform/vault -->
<g id="edge28" class="edge">
<title>terraform/vault&#45;volume&#45;&gt;terraform/vault</title>
<path fill="none" stroke="#000000" d="M1387.647,-205.2651C1451.6192,-204.9107 1537.9284,-212.3082 1605.1799,-247 1642.3538,-266.1762 1672.4616,-305.1416 1689.6859,-331.4165"/>
<polygon fill="#000000" stroke="#000000" points="1686.9088,-333.5717 1695.2316,-340.1278 1692.8138,-329.8125 1686.9088,-333.5717"/>
</g>
<!-- terraform/security&#45;&gt;terraform/bastion -->
<g id="edge33" class="edge">
<title>terraform/security&#45;&gt;terraform/bastion</title>
<path fill="none" stroke="#000000" d="M1373.0894,-525C1392.8642,-525 1414.3101,-525 1434.4524,-525"/>
<polygon fill="#000000" stroke="#000000" points="1434.5355,-528.5001 1444.5355,-525 1434.5355,-521.5001 1434.5355,-528.5001"/>
</g>
<!-- terraform/security&#45;&gt;terraform/vault -->
<g id="edge31" class="edge">
<title>terraform/security&#45;&gt;terraform/vault</title>
<path fill="none" stroke="#000000" d="M1354.3791,-512.9991C1439.9321,-494.6214 1594.1077,-460.9958 1605.1799,-455 1637.8644,-437.3008 1667.409,-405.9831 1685.8406,-383.7234"/>
<polygon fill="#000000" stroke="#000000" points="1688.7765,-385.6591 1692.3439,-375.683 1683.3339,-381.257 1688.7765,-385.6591"/>
</g>
<!-- terraform/security&#45;&gt;terraform/private -->
<g id="edge34" class="edge">
<title>terraform/security&#45;&gt;terraform/private</title>
<path fill="none" stroke="#000000" d="M1351.4274,-537.6612C1374.9063,-542.8214 1402.8999,-548.4065 1428.3956,-552 1550.7081,-569.2393 1582.0028,-573 1705.5242,-573 1705.5242,-573 1705.5242,-573 2133.6926,-573 2314.202,-573 2474.5684,-388.1731 2528.7349,-318.3144"/>
<polygon fill="#000000" stroke="#000000" points="2531.7962,-320.0733 2535.0954,-310.0053 2526.2378,-315.8184 2531.7962,-320.0733"/>
</g>
<!-- terraform/private&#45;&gt;terraform/services -->
<g id="edge27" class="edge">
<title>terraform/private&#45;&gt;terraform/services</title>
<path fill="none" stroke="#000000" d="M2567.4387,-309.5563C2600.2311,-339.5001 2667.042,-400.5073 2704.3626,-434.5859"/>
<polygon fill="#000000" stroke="#000000" points="2702.1113,-437.2699 2711.8559,-441.4284 2706.8315,-432.1007 2702.1113,-437.2699"/>
</g>
<!-- @terraform/vpc -->
<g id="node12" class="node">
<title>@terraform/vpc</title>
<ellipse fill="none" stroke="#000000" cx="471.0646" cy="-265" rx="67.6881" ry="18"/>
<text text-anchor="middle" x="471.0646" y="-261.3" font-family="Times,serif" font-size="14.00" fill="#000000">@terraform/vpc</text>
</g>
<!-- @ansible/machines -->
<g id="node13" class="node">
<title>@ansible/machines</title>
<ellipse fill="none" stroke="#000000" cx="654.6015" cy="-265" rx="79.8859" ry="18"/>
<text text-anchor="middle" x="654.6015" y="-261.3" font-family="Times,serif" font-size="14.00" fill="#000000">@ansible/machines</text>
</g>
<!-- @terraform/vpc&#45;&gt;@ansible/machines -->
<g id="edge22" class="edge">
<title>@terraform/vpc&#45;&gt;@ansible/machines</title>
<path fill="none" stroke="#000000" d="M538.8855,-265C547.2525,-265 555.9052,-265 564.5376,-265"/>
<polygon fill="#000000" stroke="#000000" points="564.6439,-268.5001 574.6439,-265 564.6438,-261.5001 564.6439,-268.5001"/>
</g>
<!-- @ansible/machines&#45;&gt;@ansible/worker&#45;provision -->
<g id="edge23" class="edge">
<title>@ansible/machines&#45;&gt;@ansible/worker&#45;provision</title>
<path fill="none" stroke="#000000" d="M734.5454,-265C742.9061,-265 751.5252,-265 760.1927,-265"/>
<polygon fill="#000000" stroke="#000000" points="760.3773,-268.5001 770.3773,-265 760.3772,-261.5001 760.3773,-268.5001"/>
</g>
<!-- chef/ubuntu_java -->
<g id="node15" class="node">
<title>chef/ubuntu_java</title>
<ellipse fill="none" stroke="#000000" cx="2133.6926" cy="-265" rx="71.4873" ry="18"/>
<text text-anchor="middle" x="2133.6926" y="-261.3" font-family="Times,serif" font-size="14.00" fill="#000000">chef/ubuntu_java</text>
</g>
<!-- packer/ubuntu&#45;java* -->
<g id="node16" class="node">
<title>packer/ubuntu&#45;java*</title>
<ellipse fill="none" stroke="#000000" cx="2357.526" cy="-292" rx="83.3857" ry="18"/>
<text text-anchor="middle" x="2357.526" y="-288.3" font-family="Times,serif" font-size="14.00" fill="#000000">packer/ubuntu&#45;java*</text>
</g>
<!-- chef/ubuntu_java&#45;&gt;packer/ubuntu&#45;java* -->
<g id="edge35" class="edge">
<title>chef/ubuntu_java&#45;&gt;packer/ubuntu&#45;java*</title>
<path fill="none" stroke="#000000" d="M2198.4345,-272.8095C2222.1517,-275.6704 2249.3286,-278.9486 2274.4299,-281.9765"/>
<polygon fill="#000000" stroke="#000000" points="2274.3252,-285.4892 2284.6724,-283.212 2275.1636,-278.5395 2274.3252,-285.4892"/>
</g>
<!-- packer/ubuntu&#45;java*&#45;&gt;terraform/private -->
<g id="edge44" class="edge">
<title>packer/ubuntu&#45;java*&#45;&gt;terraform/private</title>
<path fill="none" stroke="#000000" d="M2440.8863,-292C2449.3648,-292 2457.9717,-292 2466.4331,-292"/>
<polygon fill="#000000" stroke="#000000" points="2466.6636,-295.5001 2476.6636,-292 2466.6636,-288.5001 2466.6636,-295.5001"/>
</g>
<!-- @ansible&#45;local/devbox -->
<g id="node17" class="node">
<title>@ansible&#45;local/devbox</title>
<ellipse fill="none" stroke="#000000" cx="92.2918" cy="-265" rx="92.0841" ry="18"/>
<text text-anchor="middle" x="92.2918" y="-261.3" font-family="Times,serif" font-size="14.00" fill="#000000">@ansible&#45;local/devbox</text>
</g>
<!-- @terraform/users -->
<g id="node18" class="node">
<title>@terraform/users</title>
<ellipse fill="none" stroke="#000000" cx="294.0271" cy="-265" rx="73.387" ry="18"/>
<text text-anchor="middle" x="294.0271" y="-261.3" font-family="Times,serif" font-size="14.00" fill="#000000">@terraform/users</text>
</g>
<!-- @ansible&#45;local/devbox&#45;&gt;@terraform/users -->
<g id="edge36" class="edge">
<title>@ansible&#45;local/devbox&#45;&gt;@terraform/users</title>
<path fill="none" stroke="#000000" d="M184.5988,-265C193.1549,-265 201.7937,-265 210.2666,-265"/>
<polygon fill="#000000" stroke="#000000" points="210.5027,-268.5001 220.5026,-265 210.5026,-261.5001 210.5027,-268.5001"/>
</g>
<!-- @terraform/users&#45;&gt;@terraform/vpc -->
<g id="edge37" class="edge">
<title>@terraform/users&#45;&gt;@terraform/vpc</title>
<path fill="none" stroke="#000000" d="M367.5689,-265C376.0114,-265 384.6412,-265 393.1388,-265"/>
<polygon fill="#000000" stroke="#000000" points="393.417,-268.5001 403.417,-265 393.417,-261.5001 393.417,-268.5001"/>
</g>
<!-- @shell/root&#45;certificates&#45;&gt;@shell/init&#45;vault -->
<g id="edge48" class="edge">
<title>@shell/root&#45;certificates&#45;&gt;@shell/init&#45;vault</title>
<path fill="none" stroke="#000000" d="M1993.2526,-412.1783C2061.4482,-410.7043 2155.8739,-406.851 2238.3333,-397 2256.7843,-394.7958 2276.6648,-391.3815 2294.8013,-387.8522"/>
<polygon fill="#000000" stroke="#000000" points="2295.5532,-391.2713 2304.6776,-385.8866 2294.1868,-384.4059 2295.5532,-391.2713"/>
</g>
<!-- @shell/root&#45;certificates&#45;&gt;packer/authenticated&#45;ami* -->
<g id="edge43" class="edge">
<title>@shell/root&#45;certificates&#45;&gt;packer/authenticated&#45;ami*</title>
<path fill="none" stroke="#000000" d="M1939.993,-396.7338C1979.5557,-380.8568 2039.8813,-356.6475 2082.6859,-339.4695"/>
<polygon fill="#000000" stroke="#000000" points="2084.1037,-342.672 2092.0807,-335.6993 2081.4965,-336.1756 2084.1037,-342.672"/>
</g>
<!-- packer/authenticated&#45;ami*&#45;&gt;packer/ubuntu&#45;java* -->
<g id="edge46" class="edge">
<title>packer/authenticated&#45;ami*&#45;&gt;packer/ubuntu&#45;java*</title>
<path fill="none" stroke="#000000" d="M2219.5923,-308.6383C2237.6083,-306.4651 2256.5766,-304.1771 2274.486,-302.0167"/>
<polygon fill="#000000" stroke="#000000" points="2275.0935,-305.4689 2284.6023,-300.7964 2274.2551,-298.5193 2275.0935,-305.4689"/>
</g>
<!-- packer/authenticated&#45;ami*&#45;&gt;@shell/init&#45;vault -->
<g id="edge47" class="edge">
<title>packer/authenticated&#45;ami*&#45;&gt;@shell/init&#45;vault</title>
<path fill="none" stroke="#000000" d="M2193.9703,-333.8113C2225.7507,-341.6204 2264.6463,-351.1777 2296.5325,-359.0128"/>
<polygon fill="#000000" stroke="#000000" points="2296.0747,-362.5043 2306.621,-361.4917 2297.745,-355.7065 2296.0747,-362.5043"/>
</g>
</g>
</svg>
