<?xml version="1.0" encoding="UTF-8" standalone="no"?>
<!DOCTYPE svg PUBLIC "-//W3C//DTD SVG 1.1//EN"
 "http://www.w3.org/Graphics/SVG/1.1/DTD/svg11.dtd">
<!-- Generated by graphviz version 2.40.1 (20161225.0304)
 -->
<!-- Title: G Pages: 1 -->
<svg width="2824pt" height="742pt"
 viewBox="0.00 0.00 2823.59 741.63" xmlns="http://www.w3.org/2000/svg" xmlns:xlink="http://www.w3.org/1999/xlink">
<g id="graph0" class="graph" transform="scale(1 1) rotate(0) translate(4 737.6321)">
<title>G</title>
<polygon fill="#ffffff" stroke="transparent" points="-4,4 -4,-737.6321 2819.5917,-737.6321 2819.5917,4 -4,4"/>
<text text-anchor="middle" x="1407.7958" y="-7.8" font-family="Times,serif" font-size="14.00" fill="#000000">pipeline</text>
<!-- packer/source&#45;ami* -->
<g id="node1" class="node">
<title>packer/source&#45;ami*</title>
<ellipse fill="none" stroke="#000000" cx="1307.2532" cy="-402.6321" rx="80.6858" ry="18"/>
<text text-anchor="middle" x="1307.2532" y="-398.9321" font-family="Times,serif" font-size="14.00" fill="#000000">packer/source&#45;ami*</text>
</g>
<!-- terraform/bastion -->
<g id="node2" class="node">
<title>terraform/bastion</title>
<ellipse fill="none" stroke="#000000" cx="1525.887" cy="-520.6321" rx="72.2875" ry="18"/>
<text text-anchor="middle" x="1525.887" y="-516.9321" font-family="Times,serif" font-size="14.00" fill="#000000">terraform/bastion</text>
</g>
<!-- packer/source&#45;ami*&#45;&gt;terraform/bastion -->
<g id="edge1" class="edge">
<title>packer/source&#45;ami*&#45;&gt;terraform/bastion</title>
<path fill="none" stroke="#000000" d="M1357.705,-416.8949C1372.181,-421.7472 1387.7572,-427.7207 1401.4948,-434.6321 1436.1119,-452.0478 1472.1615,-477.9689 1496.4845,-496.7986"/>
<polygon fill="#000000" stroke="#000000" points="1494.5465,-499.7264 1504.5772,-503.1375 1498.863,-494.2157 1494.5465,-499.7264"/>
</g>
<!-- packer/vault&#45;ami* -->
<g id="node3" class="node">
<title>packer/vault&#45;ami*</title>
<ellipse fill="none" stroke="#000000" cx="1525.887" cy="-222.6321" rx="75.2868" ry="18"/>
<text text-anchor="middle" x="1525.887" y="-218.9321" font-family="Times,serif" font-size="14.00" fill="#000000">packer/vault&#45;ami*</text>
</g>
<!-- packer/source&#45;ami*&#45;&gt;packer/vault&#45;ami* -->
<g id="edge2" class="edge">
<title>packer/source&#45;ami*&#45;&gt;packer/vault&#45;ami*</title>
<path fill="none" stroke="#000000" d="M1368.9592,-390.8176C1380.3315,-387.0473 1391.695,-382.1031 1401.4948,-375.6321 1451.2393,-342.7849 1490.8635,-283.8355 1511.1201,-249.4899"/>
<polygon fill="#000000" stroke="#000000" points="1514.3431,-250.9075 1516.3123,-240.4973 1508.281,-247.4073 1514.3431,-250.9075"/>
</g>
<!-- packer/authenticated&#45;ami* -->
<g id="node23" class="node">
<title>packer/authenticated&#45;ami*</title>
<ellipse fill="none" stroke="#000000" cx="2142.7918" cy="-428.6321" rx="104.7816" ry="18"/>
<text text-anchor="middle" x="2142.7918" y="-424.9321" font-family="Times,serif" font-size="14.00" fill="#000000">packer/authenticated&#45;ami*</text>
</g>
<!-- packer/source&#45;ami*&#45;&gt;packer/authenticated&#45;ami* -->
<g id="edge50" class="edge">
<title>packer/source&#45;ami*&#45;&gt;packer/authenticated&#45;ami*</title>
<path fill="none" stroke="#000000" d="M1376.42,-411.8882C1396.1177,-414.1734 1417.6213,-416.3359 1437.4948,-417.6321 1645.3833,-431.191 1888.4309,-431.587 2028.108,-430.3267"/>
<polygon fill="#000000" stroke="#000000" points="2028.4316,-433.8239 2038.3979,-430.2292 2028.3652,-426.8242 2028.4316,-433.8239"/>
</g>
<!-- terraform/prometheus -->
<g id="node24" class="node">
<title>terraform/prometheus</title>
<ellipse fill="none" stroke="#000000" cx="1525.887" cy="-390.6321" rx="88.2844" ry="18"/>
<text text-anchor="middle" x="1525.887" y="-386.9321" font-family="Times,serif" font-size="14.00" fill="#000000">terraform/prometheus</text>
</g>
<!-- packer/source&#45;ami*&#45;&gt;terraform/prometheus -->
<g id="edge56" class="edge">
<title>packer/source&#45;ami*&#45;&gt;terraform/prometheus</title>
<path fill="none" stroke="#000000" d="M1385.5675,-398.3337C1400.0029,-397.5414 1415.2245,-396.7059 1430.1063,-395.8891"/>
<polygon fill="#000000" stroke="#000000" points="1430.5478,-399.3702 1440.341,-395.3274 1430.1641,-392.3808 1430.5478,-399.3702"/>
</g>
<!-- terraform/vault -->
<g id="node10" class="node">
<title>terraform/vault</title>
<ellipse fill="none" stroke="#000000" cx="1714.6234" cy="-268.6321" rx="64.189" ry="18"/>
<text text-anchor="middle" x="1714.6234" y="-264.9321" font-family="Times,serif" font-size="14.00" fill="#000000">terraform/vault</text>
</g>
<!-- terraform/bastion&#45;&gt;terraform/vault -->
<g id="edge45" class="edge">
<title>terraform/bastion&#45;&gt;terraform/vault</title>
<path fill="none" stroke="#000000" d="M1580.1703,-508.6071C1592.4517,-503.9298 1604.6825,-497.485 1614.2791,-488.6321 1671.8172,-435.553 1698.7737,-343.0714 1709.1716,-296.7534"/>
<polygon fill="#000000" stroke="#000000" points="1712.6292,-297.3223 1711.3067,-286.8103 1705.7852,-295.8526 1712.6292,-297.3223"/>
</g>
<!-- terraform/services -->
<g id="node16" class="node">
<title>terraform/services</title>
<ellipse fill="none" stroke="#000000" cx="2740.1984" cy="-362.6321" rx="75.2868" ry="18"/>
<text text-anchor="middle" x="2740.1984" y="-358.9321" font-family="Times,serif" font-size="14.00" fill="#000000">terraform/services</text>
</g>
<!-- terraform/bastion&#45;&gt;terraform/services -->
<g id="edge30" class="edge">
<title>terraform/bastion&#45;&gt;terraform/services</title>
<path fill="none" stroke="#000000" d="M1584.4795,-531.3019C1708.1501,-551.9744 2004.4522,-591.7403 2247.4325,-547.6321 2422.9615,-515.7683 2617.3467,-424.9144 2699.7477,-383.573"/>
<polygon fill="#000000" stroke="#000000" points="2701.418,-386.6506 2708.7683,-379.02 2698.2639,-380.4014 2701.418,-386.6506"/>
</g>
<!-- @shell/root&#45;certificates -->
<g id="node21" class="node">
<title>@shell/root&#45;certificates</title>
<ellipse fill="none" stroke="#000000" cx="1908.5594" cy="-390.6321" rx="93.6835" ry="18"/>
<text text-anchor="middle" x="1908.5594" y="-386.9321" font-family="Times,serif" font-size="14.00" fill="#000000">@shell/root&#45;certificates</text>
</g>
<!-- terraform/bastion&#45;&gt;@shell/root&#45;certificates -->
<g id="edge43" class="edge">
<title>terraform/bastion&#45;&gt;@shell/root&#45;certificates</title>
<path fill="none" stroke="#000000" d="M1568.6705,-506.0978C1638.1535,-482.4933 1775.5055,-435.8326 1852.6348,-409.6306"/>
<polygon fill="#000000" stroke="#000000" points="1853.8479,-412.915 1862.1907,-406.3843 1851.5963,-406.287 1853.8479,-412.915"/>
</g>
<!-- @shell/init&#45;vault -->
<g id="node22" class="node">
<title>@shell/init&#45;vault</title>
<ellipse fill="none" stroke="#000000" cx="2366.6251" cy="-378.6321" rx="70.3881" ry="18"/>
<text text-anchor="middle" x="2366.6251" y="-374.9321" font-family="Times,serif" font-size="14.00" fill="#000000">@shell/init&#45;vault</text>
</g>
<!-- terraform/bastion&#45;&gt;@shell/init&#45;vault -->
<g id="edge46" class="edge">
<title>terraform/bastion&#45;&gt;@shell/init&#45;vault</title>
<path fill="none" stroke="#000000" d="M1597.1502,-517.5663C1768.1692,-509.7353 2191.8144,-487.352 2247.4325,-455.6321 2271.219,-442.0662 2261.3111,-421.7712 2283.4325,-405.6321 2289.5047,-401.202 2296.3391,-397.4756 2303.4138,-394.3464"/>
<polygon fill="#000000" stroke="#000000" points="2305.1812,-397.4088 2313.1612,-390.4396 2302.5769,-390.9113 2305.1812,-397.4088"/>
</g>
<!-- packer/vault&#45;ami*&#45;&gt;terraform/vault -->
<g id="edge26" class="edge">
<title>packer/vault&#45;ami*&#45;&gt;terraform/vault</title>
<path fill="none" stroke="#000000" d="M1578.7116,-235.5068C1602.7691,-241.3703 1631.3272,-248.3306 1656.0413,-254.3541"/>
<polygon fill="#000000" stroke="#000000" points="1655.4713,-257.8175 1666.0157,-256.7851 1657.1289,-251.0166 1655.4713,-257.8175"/>
</g>
<!-- @ansible/machines* -->
<g id="node4" class="node">
<title>@ansible/machines*</title>
<ellipse fill="none" stroke="#000000" cx="659.1511" cy="-504.6321" rx="84.485" ry="18"/>
<text text-anchor="middle" x="659.1511" y="-500.9321" font-family="Times,serif" font-size="14.00" fill="#000000">@ansible/machines*</text>
</g>
<!-- gradle/app -->
<g id="node5" class="node">
<title>gradle/app</title>
<ellipse fill="none" stroke="#000000" cx="1103.5681" cy="-715.6321" rx="48.1917" ry="18"/>
<text text-anchor="middle" x="1103.5681" y="-711.9321" font-family="Times,serif" font-size="14.00" fill="#000000">gradle/app</text>
</g>
<!-- @ansible/machines*&#45;&gt;gradle/app -->
<g id="edge3" class="edge">
<title>@ansible/machines*&#45;&gt;gradle/app</title>
<path fill="none" stroke="#000000" d="M694.0237,-521.1889C775.6769,-559.9561 978.8217,-656.4051 1064.4842,-697.0758"/>
<polygon fill="#000000" stroke="#000000" points="1063.0754,-700.2814 1073.6101,-701.4086 1066.0777,-693.9579 1063.0754,-700.2814"/>
</g>
<!-- @ansible/worker&#45;provision -->
<g id="node8" class="node">
<title>@ansible/worker&#45;provision</title>
<ellipse fill="none" stroke="#000000" cx="886.8841" cy="-481.6321" rx="107.4815" ry="18"/>
<text text-anchor="middle" x="886.8841" y="-477.9321" font-family="Times,serif" font-size="14.00" fill="#000000">@ansible/worker&#45;provision</text>
</g>
<!-- @ansible/machines*&#45;&gt;@ansible/worker&#45;provision -->
<g id="edge28" class="edge">
<title>@ansible/machines*&#45;&gt;@ansible/worker&#45;provision</title>
<path fill="none" stroke="#000000" d="M735.6164,-496.9094C751.3465,-495.3207 768.1478,-493.6239 784.6218,-491.9601"/>
<polygon fill="#000000" stroke="#000000" points="785.2267,-495.4169 794.8244,-490.9297 784.5233,-488.4523 785.2267,-495.4169"/>
</g>
<!-- ansible&#45;local/nginx -->
<g id="node6" class="node">
<title>ansible&#45;local/nginx</title>
<ellipse fill="none" stroke="#000000" cx="1307.2532" cy="-688.6321" rx="77.9862" ry="18"/>
<text text-anchor="middle" x="1307.2532" y="-684.9321" font-family="Times,serif" font-size="14.00" fill="#000000">ansible&#45;local/nginx</text>
</g>
<!-- gradle/app&#45;&gt;ansible&#45;local/nginx -->
<g id="edge4" class="edge">
<title>gradle/app&#45;&gt;ansible&#45;local/nginx</title>
<path fill="none" stroke="#000000" d="M1149.0254,-709.6063C1172.6256,-706.478 1202.1246,-702.5677 1229.2368,-698.9737"/>
<polygon fill="#000000" stroke="#000000" points="1230.0403,-702.3979 1239.4937,-697.6141 1229.1204,-695.4586 1230.0403,-702.3979"/>
</g>
<!-- ansible&#45;local/deploy -->
<g id="node7" class="node">
<title>ansible&#45;local/deploy</title>
<ellipse fill="none" stroke="#000000" cx="1525.887" cy="-688.6321" rx="81.7856" ry="18"/>
<text text-anchor="middle" x="1525.887" y="-684.9321" font-family="Times,serif" font-size="14.00" fill="#000000">ansible&#45;local/deploy</text>
</g>
<!-- ansible&#45;local/nginx&#45;&gt;ansible&#45;local/deploy -->
<g id="edge5" class="edge">
<title>ansible&#45;local/nginx&#45;&gt;ansible&#45;local/deploy</title>
<path fill="none" stroke="#000000" d="M1385.259,-688.6321C1400.8517,-688.6321 1417.3726,-688.6321 1433.3991,-688.6321"/>
<polygon fill="#000000" stroke="#000000" points="1433.8447,-692.1322 1443.8447,-688.6321 1433.8446,-685.1322 1433.8447,-692.1322"/>
</g>
<!-- @ansible/worker&#45;provision&#45;&gt;packer/source&#45;ami* -->
<g id="edge6" class="edge">
<title>@ansible/worker&#45;provision&#45;&gt;packer/source&#45;ami*</title>
<path fill="none" stroke="#000000" d="M958.6705,-468.1412C1035.8712,-453.6329 1157.9146,-430.6973 1235.2133,-416.1705"/>
<polygon fill="#000000" stroke="#000000" points="1236.1648,-419.5531 1245.3463,-414.2662 1234.8719,-412.6735 1236.1648,-419.5531"/>
</g>
<!-- @ansible/worker&#45;provision&#45;&gt;terraform/bastion -->
<g id="edge7" class="edge">
<title>@ansible/worker&#45;provision&#45;&gt;terraform/bastion</title>
<path fill="none" stroke="#000000" d="M968.2604,-493.4231C988.4591,-496.2315 1010.0663,-499.1355 1030.1246,-501.6321 1111.2662,-511.7312 1131.3651,-517.181 1213.0115,-521.6321 1296.6577,-526.1921 1317.7251,-521.9688 1401.4948,-521.6321 1415.0499,-521.5776 1429.4357,-521.4897 1443.43,-521.3881"/>
<polygon fill="#000000" stroke="#000000" points="1443.56,-524.8873 1453.5333,-521.3119 1443.5072,-517.8875 1443.56,-524.8873"/>
</g>
<!-- @ansible/worker&#45;provision&#45;&gt;packer/vault&#45;ami* -->
<g id="edge8" class="edge">
<title>@ansible/worker&#45;provision&#45;&gt;packer/vault&#45;ami*</title>
<path fill="none" stroke="#000000" d="M898.8985,-463.7212C921.3144,-431.4722 972.4925,-363.141 1030.1246,-321.6321 1101.9715,-269.8851 1126.9193,-263.3169 1213.0115,-242.6321 1288.461,-224.5043 1376.907,-220.3643 1440.4756,-220.2547"/>
<polygon fill="#000000" stroke="#000000" points="1440.8485,-223.7553 1450.8544,-220.2722 1440.8603,-216.7553 1440.8485,-223.7553"/>
</g>
<!-- @ansible/worker&#45;provision&#45;&gt;gradle/app -->
<g id="edge9" class="edge">
<title>@ansible/worker&#45;provision&#45;&gt;gradle/app</title>
<path fill="none" stroke="#000000" d="M902.3594,-499.7309C924.0631,-525.5033 964.2332,-574.6493 994.1246,-619.6321 1012.1869,-646.8136 1005.9069,-661.7553 1030.1246,-683.6321 1037.633,-690.4147 1046.8051,-695.9266 1056.0889,-700.3423"/>
<polygon fill="#000000" stroke="#000000" points="1054.7883,-703.5936 1065.3525,-704.399 1057.5964,-697.1815 1054.7883,-703.5936"/>
</g>
<!-- @ansible/worker&#45;provision&#45;&gt;ansible&#45;local/nginx -->
<g id="edge10" class="edge">
<title>@ansible/worker&#45;provision&#45;&gt;ansible&#45;local/nginx</title>
<path fill="none" stroke="#000000" d="M900.1253,-499.7041C928.8974,-538.4525 997.1764,-627.4867 1030.1246,-645.6321 1087.9592,-677.483 1162.2844,-687.6558 1219.401,-690.1796"/>
<polygon fill="#000000" stroke="#000000" points="1219.3726,-693.6808 1229.4957,-690.5545 1219.6325,-686.6857 1219.3726,-693.6808"/>
</g>
<!-- @ansible/worker&#45;provision&#45;&gt;ansible&#45;local/deploy -->
<g id="edge11" class="edge">
<title>@ansible/worker&#45;provision&#45;&gt;ansible&#45;local/deploy</title>
<path fill="none" stroke="#000000" d="M913.9118,-499.2432C936.5291,-514.6163 969.0349,-538.2316 994.1246,-562.6321 1012.4858,-580.4889 1007.9004,-594.9007 1030.1246,-607.6321 1102.4867,-649.0855 1319.4337,-646.7785 1401.4948,-661.6321 1420.3882,-665.0519 1440.7855,-669.2605 1459.4896,-673.3285"/>
<polygon fill="#000000" stroke="#000000" points="1458.8736,-676.7765 1469.3916,-675.5028 1460.375,-669.9394 1458.8736,-676.7765"/>
</g>
<!-- terraform/buckets -->
<g id="node9" class="node">
<title>terraform/buckets</title>
<ellipse fill="none" stroke="#000000" cx="1103.5681" cy="-348.6321" rx="73.387" ry="18"/>
<text text-anchor="middle" x="1103.5681" y="-344.9321" font-family="Times,serif" font-size="14.00" fill="#000000">terraform/buckets</text>
</g>
<!-- @ansible/worker&#45;provision&#45;&gt;terraform/buckets -->
<g id="edge12" class="edge">
<title>@ansible/worker&#45;provision&#45;&gt;terraform/buckets</title>
<path fill="none" stroke="#000000" d="M911.7151,-463.9726C939.8724,-444.2305 987.4242,-411.7396 1030.1246,-386.6321 1040.1748,-380.7226 1051.2395,-374.7384 1061.6637,-369.3214"/>
<polygon fill="#000000" stroke="#000000" points="1063.321,-372.4049 1070.6178,-364.7233 1060.1233,-366.178 1063.321,-372.4049"/>
</g>
<!-- @ansible/worker&#45;provision&#45;&gt;terraform/vault -->
<g id="edge13" class="edge">
<title>@ansible/worker&#45;provision&#45;&gt;terraform/vault</title>
<path fill="none" stroke="#000000" d="M887.6514,-463.6103C891.4206,-402.5705 912.9294,-204.7473 1030.1246,-119.6321 1240.3154,33.0231 1388.0844,-11.8835 1614.2791,-139.6321 1655.6736,-163.0105 1687.3766,-210.5273 1703.2866,-241.1167"/>
<polygon fill="#000000" stroke="#000000" points="1700.312,-242.9965 1707.8895,-250.4014 1706.5836,-239.8873 1700.312,-242.9965"/>
</g>
<!-- @ansible/worker&#45;provision&#45;&gt;terraform/vault -->
<g id="edge37" class="edge">
<title>@ansible/worker&#45;provision&#45;&gt;terraform/vault</title>
<path fill="none" stroke="#000000" d="M888.2114,-463.4732C893.3501,-404.5014 917.7457,-219.2494 1030.1246,-137.6321 1240.3154,15.0231 1388.0844,-29.8835 1614.2791,-157.6321 1650.027,-177.8215 1678.5472,-216.0131 1695.9097,-242.0513"/>
<polygon fill="#000000" stroke="#000000" points="1693.1714,-244.2584 1701.5793,-250.705 1699.0267,-240.4222 1693.1714,-244.2584"/>
</g>
<!-- terraform/dns -->
<g id="node11" class="node">
<title>terraform/dns</title>
<ellipse fill="none" stroke="#000000" cx="1307.2532" cy="-348.6321" rx="59.2899" ry="18"/>
<text text-anchor="middle" x="1307.2532" y="-344.9321" font-family="Times,serif" font-size="14.00" fill="#000000">terraform/dns</text>
</g>
<!-- @ansible/worker&#45;provision&#45;&gt;terraform/dns -->
<g id="edge14" class="edge">
<title>@ansible/worker&#45;provision&#45;&gt;terraform/dns</title>
<path fill="none" stroke="#000000" d="M925.0178,-464.7274C953.6102,-452.4127 993.8882,-435.8224 1030.1246,-423.6321 1105.2183,-398.3697 1193.9026,-375.5634 1250.3482,-361.9029"/>
<polygon fill="#000000" stroke="#000000" points="1251.2532,-365.2852 1260.1569,-359.5427 1249.6155,-358.4794 1251.2532,-365.2852"/>
</g>
<!-- terraform/vault&#45;volume -->
<g id="node12" class="node">
<title>terraform/vault&#45;volume</title>
<ellipse fill="none" stroke="#000000" cx="1307.2532" cy="-142.6321" rx="94.4839" ry="18"/>
<text text-anchor="middle" x="1307.2532" y="-138.9321" font-family="Times,serif" font-size="14.00" fill="#000000">terraform/vault&#45;volume</text>
</g>
<!-- @ansible/worker&#45;provision&#45;&gt;terraform/vault&#45;volume -->
<g id="edge15" class="edge">
<title>@ansible/worker&#45;provision&#45;&gt;terraform/vault&#45;volume</title>
<path fill="none" stroke="#000000" d="M889.2168,-463.6219C897.2733,-409.4671 929.2173,-247.3737 1030.1246,-174.6321 1084.3483,-135.5434 1160.6541,-129.3011 1219.4716,-131.8499"/>
<polygon fill="#000000" stroke="#000000" points="1219.3267,-135.347 1229.4963,-132.3758 1219.6935,-128.3566 1219.3267,-135.347"/>
</g>
<!-- terraform/security -->
<g id="node13" class="node">
<title>terraform/security</title>
<ellipse fill="none" stroke="#000000" cx="1307.2532" cy="-494.6321" rx="74.9875" ry="18"/>
<text text-anchor="middle" x="1307.2532" y="-490.9321" font-family="Times,serif" font-size="14.00" fill="#000000">terraform/security</text>
</g>
<!-- @ansible/worker&#45;provision&#45;&gt;terraform/security -->
<g id="edge16" class="edge">
<title>@ansible/worker&#45;provision&#45;&gt;terraform/security</title>
<path fill="none" stroke="#000000" d="M992.4184,-484.8957C1063.6682,-487.0991 1156.4584,-489.9687 1222.8113,-492.0207"/>
<polygon fill="#000000" stroke="#000000" points="1222.711,-495.5192 1232.8144,-492.33 1222.9274,-488.5225 1222.711,-495.5192"/>
</g>
<!-- terraform/private -->
<g id="node14" class="node">
<title>terraform/private</title>
<ellipse fill="none" stroke="#000000" cx="2557.3114" cy="-362.6321" rx="71.4873" ry="18"/>
<text text-anchor="middle" x="2557.3114" y="-358.9321" font-family="Times,serif" font-size="14.00" fill="#000000">terraform/private</text>
</g>
<!-- @ansible/worker&#45;provision&#45;&gt;terraform/private -->
<g id="edge17" class="edge">
<title>@ansible/worker&#45;provision&#45;&gt;terraform/private</title>
<path fill="none" stroke="#000000" d="M935.224,-497.8065C1061.6943,-538.6339 1413.4098,-642.6321 1714.6234,-642.6321 1714.6234,-642.6321 1714.6234,-642.6321 2142.7918,-642.6321 2287.7413,-642.6321 2339.3647,-626.4962 2449.8178,-532.6321 2496.6377,-492.844 2529.8787,-427.4389 2546.0883,-390.4284"/>
<polygon fill="#000000" stroke="#000000" points="2549.4968,-391.3585 2550.2057,-380.7874 2543.0593,-388.6091 2549.4968,-391.3585"/>
</g>
<!-- terraform/buckets&#45;&gt;packer/source&#45;ami* -->
<g id="edge18" class="edge">
<title>terraform/buckets&#45;&gt;packer/source&#45;ami*</title>
<path fill="none" stroke="#000000" d="M1153.6559,-361.9111C1181.3829,-369.262 1216.0806,-378.4608 1245.4788,-386.2547"/>
<polygon fill="#000000" stroke="#000000" points="1244.6648,-389.6598 1255.2278,-388.8393 1246.4586,-382.8935 1244.6648,-389.6598"/>
</g>
<!-- terraform/buckets&#45;&gt;terraform/bastion -->
<g id="edge19" class="edge">
<title>terraform/buckets&#45;&gt;terraform/bastion</title>
<path fill="none" stroke="#000000" d="M1122.0859,-366.3988C1142.6315,-385.0777 1177.5829,-413.8937 1213.0115,-429.6321 1291.1084,-464.3247 1319.8775,-442.3079 1401.4948,-467.6321 1429.6993,-476.3833 1460.2225,-489.3323 1483.9746,-500.2401"/>
<polygon fill="#000000" stroke="#000000" points="1482.5108,-503.4193 1493.0542,-504.4614 1485.4619,-497.0717 1482.5108,-503.4193"/>
</g>
<!-- terraform/buckets&#45;&gt;packer/vault&#45;ami* -->
<g id="edge20" class="edge">
<title>terraform/buckets&#45;&gt;packer/vault&#45;ami*</title>
<path fill="none" stroke="#000000" d="M1129.5115,-331.5529C1151.058,-318.0833 1182.9381,-299.7698 1213.0115,-288.6321 1256.4809,-272.5331 1376.3837,-249.3514 1454.498,-235.1789"/>
<polygon fill="#000000" stroke="#000000" points="1455.5376,-238.5478 1464.7561,-233.3259 1454.2932,-231.6593 1455.5376,-238.5478"/>
</g>
<!-- terraform/buckets&#45;&gt;terraform/vault -->
<g id="edge21" class="edge">
<title>terraform/buckets&#45;&gt;terraform/vault</title>
<path fill="none" stroke="#000000" d="M1153.4964,-335.3901C1172.1016,-330.7001 1193.4495,-325.6065 1213.0115,-321.6321 1312.0336,-301.5136 1337.0619,-296.7387 1437.4948,-285.6321 1506.0524,-278.0504 1584.5531,-273.633 1640.4615,-271.2113"/>
<polygon fill="#000000" stroke="#000000" points="1640.7869,-274.7008 1650.6304,-270.782 1640.4916,-267.707 1640.7869,-274.7008"/>
</g>
<!-- terraform/buckets&#45;&gt;terraform/dns -->
<g id="edge22" class="edge">
<title>terraform/buckets&#45;&gt;terraform/dns</title>
<path fill="none" stroke="#000000" d="M1177.1031,-348.6321C1196.8986,-348.6321 1218.244,-348.6321 1237.8088,-348.6321"/>
<polygon fill="#000000" stroke="#000000" points="1237.86,-352.1322 1247.86,-348.6321 1237.8599,-345.1322 1237.86,-352.1322"/>
</g>
<!-- terraform/buckets&#45;&gt;terraform/vault&#45;volume -->
<g id="edge23" class="edge">
<title>terraform/buckets&#45;&gt;terraform/vault&#45;volume</title>
<path fill="none" stroke="#000000" d="M1115.751,-330.6961C1134.7139,-303.4782 1173.26,-250.8719 1213.0115,-212.6321 1231.0171,-195.3112 1253.3882,-178.5277 1271.8152,-165.7385"/>
<polygon fill="#000000" stroke="#000000" points="1273.9619,-168.5107 1280.2404,-159.9765 1270.0103,-162.7327 1273.9619,-168.5107"/>
</g>
<!-- terraform/buckets&#45;&gt;terraform/security -->
<g id="edge24" class="edge">
<title>terraform/buckets&#45;&gt;terraform/security</title>
<path fill="none" stroke="#000000" d="M1116.3812,-366.6322C1134.9905,-391.5447 1171.8061,-436.4201 1213.0115,-462.6321 1222.8217,-468.8726 1233.9857,-474.0433 1245.1141,-478.2755"/>
<polygon fill="#000000" stroke="#000000" points="1244.255,-481.6853 1254.8496,-481.7564 1246.6118,-475.0939 1244.255,-481.6853"/>
</g>
<!-- terraform/buckets&#45;&gt;terraform/private -->
<g id="edge25" class="edge">
<title>terraform/buckets&#45;&gt;terraform/private</title>
<path fill="none" stroke="#000000" d="M1116.5874,-330.8493C1135.1683,-306.8504 1171.6552,-264.5797 1213.0115,-242.6321 1303.0514,-194.8482 1336.1034,-206.1324 1437.4948,-195.6321 1760.502,-162.1808 2293.7514,-163.4385 2449.8178,-247.6321 2473.2871,-260.2931 2468.0213,-275.7726 2485.8178,-295.6321 2499.2933,-310.6698 2515.6434,-326.1672 2529.305,-338.4648"/>
<polygon fill="#000000" stroke="#000000" points="2527.1986,-341.2755 2536.9961,-345.3081 2531.8518,-336.0459 2527.1986,-341.2755"/>
</g>
<!-- terraform/vault&#45;&gt;terraform/private -->
<g id="edge29" class="edge">
<title>terraform/vault&#45;&gt;terraform/private</title>
<path fill="none" stroke="#000000" d="M1776.7291,-263.8928C1930.8067,-252.9688 2327.0115,-230.2093 2449.8178,-274.6321 2484.5606,-287.1996 2516.2141,-316.2366 2536.0352,-337.5328"/>
<polygon fill="#000000" stroke="#000000" points="2533.478,-339.9232 2542.7862,-344.9837 2538.6655,-335.2231 2533.478,-339.9232"/>
</g>
<!-- terraform/vault&#45;&gt;terraform/services -->
<g id="edge31" class="edge">
<title>terraform/vault&#45;&gt;terraform/services</title>
<path fill="none" stroke="#000000" d="M1763.8596,-256.9955C1780.0453,-253.6601 1798.1894,-250.4398 1814.9677,-248.6321 2095.5001,-218.4069 2173.0615,-192.6963 2449.8178,-247.6321 2543.5836,-266.2445 2645.9208,-313.7625 2700.553,-341.5456"/>
<polygon fill="#000000" stroke="#000000" points="2699.0498,-344.7082 2709.5447,-346.1599 2702.2458,-338.4803 2699.0498,-344.7082"/>
</g>
<!-- terraform/vault&#45;&gt;@shell/root&#45;certificates -->
<g id="edge44" class="edge">
<title>terraform/vault&#45;&gt;@shell/root&#45;certificates</title>
<path fill="none" stroke="#000000" d="M1730.0202,-286.1762C1748.4363,-306.2019 1781.0525,-338.7479 1814.9677,-358.6321 1823.9485,-363.8974 1833.9246,-368.4636 1843.9208,-372.3664"/>
<polygon fill="#000000" stroke="#000000" points="1842.886,-375.7154 1853.4791,-375.9062 1845.317,-369.1511 1842.886,-375.7154"/>
</g>
<!-- terraform/vault&#45;&gt;@shell/init&#45;vault -->
<g id="edge47" class="edge">
<title>terraform/vault&#45;&gt;@shell/init&#45;vault</title>
<path fill="none" stroke="#000000" d="M1775.3767,-274.7521C1899.4479,-292.1961 2180.7137,-339.6433 2305.2817,-364.1365"/>
<polygon fill="#000000" stroke="#000000" points="2304.9189,-367.6327 2315.409,-366.1466 2306.2817,-360.7666 2304.9189,-367.6327"/>
</g>
<!-- terraform/vault&#45;&gt;@shell/init&#45;vault -->
<g id="edge54" class="edge">
<title>terraform/vault&#45;&gt;@shell/init&#45;vault</title>
<path fill="none" stroke="#000000" d="M1763.0968,-280.5659C1875.7758,-303.2996 2156.0148,-350.8297 2291.2528,-370.4237"/>
<polygon fill="#000000" stroke="#000000" points="2291.126,-373.9413 2301.5218,-371.8973 2292.1203,-367.0123 2291.126,-373.9413"/>
</g>
<!-- terraform/dns&#45;&gt;terraform/vault -->
<g id="edge35" class="edge">
<title>terraform/dns&#45;&gt;terraform/vault</title>
<path fill="none" stroke="#000000" d="M1357.2048,-338.8225C1431.3683,-324.2581 1570.5415,-296.9271 1651.6072,-281.0073"/>
<polygon fill="#000000" stroke="#000000" points="1652.5421,-284.3906 1661.6802,-279.0291 1651.1932,-277.5218 1652.5421,-284.3906"/>
</g>
<!-- terraform/dns&#45;&gt;terraform/private -->
<g id="edge34" class="edge">
<title>terraform/dns&#45;&gt;terraform/private</title>
<path fill="none" stroke="#000000" d="M1366.1766,-346.7247C1535.0617,-341.7025 2035.3116,-329.9331 2449.8178,-351.6321 2460.4317,-352.1877 2471.6126,-353.0362 2482.5897,-354.0206"/>
<polygon fill="#000000" stroke="#000000" points="2482.3081,-357.5095 2492.5913,-354.9585 2482.9617,-350.5401 2482.3081,-357.5095"/>
</g>
<!-- terraform/dns&#45;&gt;terraform/prometheus -->
<g id="edge55" class="edge">
<title>terraform/dns&#45;&gt;terraform/prometheus</title>
<path fill="none" stroke="#000000" d="M1357.4122,-358.2677C1385.2832,-363.6218 1420.4958,-370.3862 1451.5138,-376.3448"/>
<polygon fill="#000000" stroke="#000000" points="1450.9418,-379.7989 1461.4226,-378.2483 1452.2625,-372.9246 1450.9418,-379.7989"/>
</g>
<!-- terraform/vault&#45;volume&#45;&gt;terraform/vault -->
<g id="edge33" class="edge">
<title>terraform/vault&#45;volume&#45;&gt;terraform/vault</title>
<path fill="none" stroke="#000000" d="M1398.3083,-147.4433C1461.0692,-153.3421 1545.2745,-166.4622 1614.2791,-195.6321 1642.0594,-207.3754 1669.4652,-228.1068 1688.5978,-244.4834"/>
<polygon fill="#000000" stroke="#000000" points="1686.4378,-247.2441 1696.2679,-251.1964 1691.048,-241.9766 1686.4378,-247.2441"/>
</g>
<!-- terraform/security&#45;&gt;terraform/bastion -->
<g id="edge38" class="edge">
<title>terraform/security&#45;&gt;terraform/bastion</title>
<path fill="none" stroke="#000000" d="M1374.3363,-502.6096C1398.387,-505.4697 1425.6605,-508.7131 1450.3767,-511.6524"/>
<polygon fill="#000000" stroke="#000000" points="1450.0886,-515.1427 1460.432,-512.8481 1450.9153,-508.1917 1450.0886,-515.1427"/>
</g>
<!-- terraform/security&#45;&gt;terraform/vault -->
<g id="edge36" class="edge">
<title>terraform/security&#45;&gt;terraform/vault</title>
<path fill="none" stroke="#000000" d="M1380.6774,-490.9499C1447.0258,-484.4105 1544.6689,-466.483 1614.2791,-417.6321 1658.3089,-386.733 1688.5577,-329.8364 1703.6093,-295.9983"/>
<polygon fill="#000000" stroke="#000000" points="1706.8736,-297.2673 1707.621,-286.6988 1700.4462,-294.4945 1706.8736,-297.2673"/>
</g>
<!-- terraform/security&#45;&gt;terraform/private -->
<g id="edge39" class="edge">
<title>terraform/security&#45;&gt;terraform/private</title>
<path fill="none" stroke="#000000" d="M1341.8188,-510.627C1411.0119,-541.1352 1572.1385,-604.6321 1714.6234,-604.6321 1714.6234,-604.6321 1714.6234,-604.6321 2142.7918,-604.6321 2313.4076,-604.6321 2476.2592,-449.838 2534.6324,-387.8517"/>
<polygon fill="#000000" stroke="#000000" points="2537.2914,-390.132 2541.5413,-380.4269 2532.1668,-385.3635 2537.2914,-390.132"/>
</g>
<!-- terraform/private&#45;&gt;terraform/services -->
<g id="edge32" class="edge">
<title>terraform/private&#45;&gt;terraform/services</title>
<path fill="none" stroke="#000000" d="M2628.8061,-362.6321C2637.2309,-362.6321 2645.8933,-362.6321 2654.4879,-362.6321"/>
<polygon fill="#000000" stroke="#000000" points="2654.5278,-366.1322 2664.5277,-362.6321 2654.5277,-359.1322 2654.5278,-366.1322"/>
</g>
<!-- @terraform/vpc -->
<g id="node15" class="node">
<title>@terraform/vpc</title>
<ellipse fill="none" stroke="#000000" cx="471.0646" cy="-504.6321" rx="67.6881" ry="18"/>
<text text-anchor="middle" x="471.0646" y="-500.9321" font-family="Times,serif" font-size="14.00" fill="#000000">@terraform/vpc</text>
</g>
<!-- @terraform/vpc&#45;&gt;@ansible/machines* -->
<g id="edge27" class="edge">
<title>@terraform/vpc&#45;&gt;@ansible/machines*</title>
<path fill="none" stroke="#000000" d="M538.7024,-504.6321C547.0291,-504.6321 555.6563,-504.6321 564.2926,-504.6321"/>
<polygon fill="#000000" stroke="#000000" points="564.4178,-508.1322 574.4177,-504.6321 564.4177,-501.1322 564.4178,-508.1322"/>
</g>
<!-- chef/ubuntu_java -->
<g id="node17" class="node">
<title>chef/ubuntu_java</title>
<ellipse fill="none" stroke="#000000" cx="2142.7918" cy="-520.6321" rx="71.4873" ry="18"/>
<text text-anchor="middle" x="2142.7918" y="-516.9321" font-family="Times,serif" font-size="14.00" fill="#000000">chef/ubuntu_java</text>
</g>
<!-- packer/ubuntu&#45;java* -->
<g id="node18" class="node">
<title>packer/ubuntu&#45;java*</title>
<ellipse fill="none" stroke="#000000" cx="2366.6251" cy="-432.6321" rx="83.3857" ry="18"/>
<text text-anchor="middle" x="2366.6251" y="-428.9321" font-family="Times,serif" font-size="14.00" fill="#000000">packer/ubuntu&#45;java*</text>
</g>
<!-- chef/ubuntu_java&#45;&gt;packer/ubuntu&#45;java* -->
<g id="edge40" class="edge">
<title>chef/ubuntu_java&#45;&gt;packer/ubuntu&#45;java*</title>
<path fill="none" stroke="#000000" d="M2191.469,-507.314C2209.267,-502.0353 2229.4413,-495.5688 2247.4325,-488.6321 2273.8691,-478.4391 2302.6419,-464.9917 2325.2941,-453.8294"/>
<polygon fill="#000000" stroke="#000000" points="2326.889,-456.9452 2334.2863,-449.3602 2323.7735,-450.6767 2326.889,-456.9452"/>
</g>
<!-- packer/ubuntu&#45;java*&#45;&gt;terraform/private -->
<g id="edge49" class="edge">
<title>packer/ubuntu&#45;java*&#45;&gt;terraform/private</title>
<path fill="none" stroke="#000000" d="M2414.3251,-417.755C2425.9868,-413.9519 2438.3947,-409.7653 2449.8178,-405.6321 2470.0289,-398.3191 2492.1109,-389.6128 2510.9743,-381.9532"/>
<polygon fill="#000000" stroke="#000000" points="2512.2999,-385.1925 2520.2351,-378.1723 2509.654,-378.7118 2512.2999,-385.1925"/>
</g>
<!-- @ansible&#45;local/devbox -->
<g id="node19" class="node">
<title>@ansible&#45;local/devbox</title>
<ellipse fill="none" stroke="#000000" cx="92.2918" cy="-504.6321" rx="92.0841" ry="18"/>
<text text-anchor="middle" x="92.2918" y="-500.9321" font-family="Times,serif" font-size="14.00" fill="#000000">@ansible&#45;local/devbox</text>
</g>
<!-- @terraform/users -->
<g id="node20" class="node">
<title>@terraform/users</title>
<ellipse fill="none" stroke="#000000" cx="294.0271" cy="-504.6321" rx="73.387" ry="18"/>
<text text-anchor="middle" x="294.0271" y="-500.9321" font-family="Times,serif" font-size="14.00" fill="#000000">@terraform/users</text>
</g>
<!-- @ansible&#45;local/devbox&#45;&gt;@terraform/users -->
<g id="edge41" class="edge">
<title>@ansible&#45;local/devbox&#45;&gt;@terraform/users</title>
<path fill="none" stroke="#000000" d="M184.5988,-504.6321C193.1549,-504.6321 201.7937,-504.6321 210.2666,-504.6321"/>
<polygon fill="#000000" stroke="#000000" points="210.5027,-508.1322 220.5026,-504.6321 210.5026,-501.1322 210.5027,-508.1322"/>
</g>
<!-- @terraform/users&#45;&gt;@terraform/vpc -->
<g id="edge42" class="edge">
<title>@terraform/users&#45;&gt;@terraform/vpc</title>
<path fill="none" stroke="#000000" d="M367.5689,-504.6321C376.0114,-504.6321 384.6412,-504.6321 393.1388,-504.6321"/>
<polygon fill="#000000" stroke="#000000" points="393.417,-508.1322 403.417,-504.6321 393.417,-501.1322 393.417,-508.1322"/>
</g>
<!-- @shell/root&#45;certificates&#45;&gt;@shell/init&#45;vault -->
<g id="edge53" class="edge">
<title>@shell/root&#45;certificates&#45;&gt;@shell/init&#45;vault</title>
<path fill="none" stroke="#000000" d="M2001.5318,-388.1965C2085.1212,-386.0067 2206.64,-382.8232 2286.1482,-380.7403"/>
<polygon fill="#000000" stroke="#000000" points="2286.6913,-384.2274 2296.5962,-380.4666 2286.5079,-377.2298 2286.6913,-384.2274"/>
</g>
<!-- @shell/root&#45;certificates&#45;&gt;packer/authenticated&#45;ami* -->
<g id="edge48" class="edge">
<title>@shell/root&#45;certificates&#45;&gt;packer/authenticated&#45;ami*</title>
<path fill="none" stroke="#000000" d="M1980.1096,-402.2398C2004.2203,-406.1513 2031.3835,-410.5581 2056.5083,-414.6341"/>
<polygon fill="#000000" stroke="#000000" points="2055.9627,-418.0913 2066.3942,-416.2379 2057.0837,-411.1816 2055.9627,-418.0913"/>
</g>
<!-- packer/authenticated&#45;ami*&#45;&gt;packer/ubuntu&#45;java* -->
<g id="edge51" class="edge">
<title>packer/authenticated&#45;ami*&#45;&gt;packer/ubuntu&#45;java*</title>
<path fill="none" stroke="#000000" d="M2247.1723,-430.4974C2255.9375,-430.654 2264.7647,-430.8118 2273.4374,-430.9668"/>
<polygon fill="#000000" stroke="#000000" points="2273.4735,-434.4679 2283.5345,-431.1472 2273.5986,-427.469 2273.4735,-434.4679"/>
</g>
<!-- packer/authenticated&#45;ami*&#45;&gt;@shell/init&#45;vault -->
<g id="edge52" class="edge">
<title>packer/authenticated&#45;ami*&#45;&gt;@shell/init&#45;vault</title>
<path fill="none" stroke="#000000" d="M2206.9335,-414.3041C2237.2262,-407.5373 2273.2677,-399.4863 2303.4381,-392.7468"/>
<polygon fill="#000000" stroke="#000000" points="2304.4315,-396.1113 2313.4279,-390.5153 2302.9054,-389.2796 2304.4315,-396.1113"/>
</g>
</g>
</svg>
